<svg xmlns="http://www.w3.org/2000/svg" xmlns:xlink="http://www.w3.org/1999/xlink" width="64px" height="64px" viewBox="0 0 64 64" version="1.1" class="replaced-svg">
    <!-- Generator: Sketch 47.1 (45422) - http://www.bohemiancoding.com/sketch -->
    <title>outline 1pt / elife tv / elife_tv_black_64</title>
    <desc>Created with Sketch.</desc>
    <defs></defs>
    <g id="outline" stroke="none" stroke-width="1" fill="none" fill-rule="evenodd" stroke-linecap="round" stroke-linejoin="round">
        <g id="outline-1pt-/-elife-tv-/-elife_tv_black" stroke="#242424">
            <path d="M60,44 C60,45.1 59.1310345,46 58.0689655,46 L5.93103448,46 C4.86896552,46 4,45.1 4,44 L4,12 C4,10.9 4.86896552,10 5.93103448,10 L58.0689655,10 C59.1310345,10 60,10.9 60,12 L60,44 L60,44 Z" id="Line"></path>
            <path d="M29,46 L29,52" id="Line"></path>
            <path d="M35,46 L35,52" id="Line"></path>
            <path d="M51,54 C46.0117449,51.5647235 39.3381066,52.0368589 32.0004992,52.0368589 C24.6618934,52.0368589 17.9882551,51.5647235 13,54" id="Line"></path>
            <path d="M19.8273295,19.4586485 C18.999832,21.2242368 19.035829,22.7612368 19.7154352,25.4352074 C20.6717413,29.2013691 22.322833,33.0067662 23.0922149,35.5489574 C23.977828,38.1482956 23.9834661,39.4814426 24.3269556,39.6541632 C24.3607841,39.672075 24.4002507,39.6780456 24.448825,39.6780456 C24.9007393,39.6780456 26.0391989,38.9837515 28.4470952,38.2677074 C30.9985459,37.4139132 35.1104452,36.532825 38.7882119,35.1199279 C41.3127732,34.147575 43.0549417,32.9248838 43.6131122,31.4121926 C43.6469407,31.370825 43.6807692,31.3294574 43.7124292,31.2876632 C43.7089596,31.3000309 43.7063574,31.3123985 43.7024541,31.3243397 C44.4011431,30.3963397 44.6075837,29.3391191 44.1994731,28.1441485 C43.4322597,25.6057956 39.7549267,22.4089721 34.7769307,19.8812809 C30.9209138,17.9237809 27.1854651,16.8234868 24.5117114,16.8234868 C23.7332218,16.8234868 23.0436406,16.9173103 22.4694232,17.1092221 C21.2546326,17.4712956 20.6131919,18.0662221 19.9899666,19.1588397 L19.8273295,19.4586485 L19.8273295,19.4586485 Z" id="Line"></path>
            <path d="M27.3310578,35.6970279 C27.0287697,35.6970279 26.7720199,35.6475574 26.5517009,35.5349691 C25.8204845,35.166925 25.4184457,34.0619397 24.8299163,32.3117044 C24.2955992,30.5879103 23.575659,28.2150279 23.436008,25.930425 C23.297658,23.6424103 24.0071894,21.9970868 25.7992333,21.457175 C26.2585204,21.3053515 26.7928375,21.232425 27.3844028,21.232425 C29.0311575,21.232425 31.1124786,21.8026162 33.2059432,22.8666603 C36.051008,24.3094103 38.1271246,26.2647779 38.6657787,27.9881456 C39.253007,29.7379544 38.2984357,31.2600279 36.3212024,32.4720574 C34.3452702,33.6840868 31.9612273,34.4811603 30.2220947,35.0500721 C28.9695723,35.4292044 28.0314816,35.6970279 27.3310578,35.6970279" id="Line"></path>
            <path d="M27.8156296,35.1664132 C27.4057841,35.1664132 27.0557891,35.1020162 26.7886306,34.9651191 C25.4927383,34.3057956 24.466173,31.1251779 24.4843883,27.8562809 C24.493496,25.7213691 25.8674541,24.5451632 27.9283913,24.5451632 C29.0286854,24.5451632 30.3254452,24.8825015 31.7137154,25.5883103 C35.6994083,27.6114868 36.7255399,30.7912515 34.0179576,32.6971485 C31.8733166,34.2111191 29.3960284,35.1664132 27.8156296,35.1664132 L27.8156296,35.1664132 Z" id="Line"></path>
        </g>
    </g>
</svg>