<svg xmlns="http://www.w3.org/2000/svg" xmlns:xlink="http://www.w3.org/1999/xlink" width="64px" height="64px" viewBox="0 0 64 64" version="1.1" class="replaced-svg">
    <!-- Generator: Sketch 47.1 (45422) - http://www.bohemiancoding.com/sketch -->
    <title>outline 1pt / phone landline / phone_landline_black_64</title>
    <desc>Created with Sketch.</desc>
    <defs></defs>
    <g id="outline" stroke="none" stroke-width="1" fill="none" fill-rule="evenodd" stroke-linecap="round" stroke-linejoin="round">
        <g id="outline-1pt-/-phone-landline-/-phone_landline_black" stroke="#242424">
            <path d="M53.9124138,8.26771923 C57.2743448,8.9706446 60,12.2351447 60,15.7468056 L60,19.0567833 C60,21.7814842 57.8333793,23.9999997 55.1724138,23.9999997 L47.4482759,23.9999997 C44.7882759,24.0009883 42.6206897,21.7814842 42.6206897,19.0567833 L42.6206897,17.0794967 C35.4024829,16.3469121 28.602345,16.3469121 21.3793105,17.0794967 L21.3793105,19.0567833 C21.3793105,21.7814842 19.2107588,24.0009883 16.5517243,23.9999997 L8.82758644,23.9999997 C6.16662094,23.9999997 4.00000026,21.7814842 4.00000026,19.0567833 L4.00000026,15.7468056 C3.99903474,12.2351447 6.7246899,8.9706446 10.0866209,8.26771923 C24.0885519,5.34627835 38.9333794,5.14360648 53.9124138,8.26771923 L53.9124138,8.26771923 Z" id="Line"></path>
            <path d="M55,58 L9,58 L9,50.3638199 C9,39.1644255 17.121,30 28.217,30 L35.782,30 C46.878,30 55,39.1644255 55,50.3638199 L55,58 L55,58 Z" id="Line"></path>
            <path d="M27,21.7663608 L27,26.9082431" id="Line"></path>
            <path d="M37,21.7663608 L37,26.9082431" id="Line"></path>
            <path d="M41,44 C41,48.971 36.971,53 32,53 C27.028,53 23,48.971 23,44 C23,39.03 27.028,35 32,35 C36.971,35 41,39.03 41,44 L41,44 Z" id="Line"></path>
        </g>
    </g>
</svg>