<?xml version="1.0" encoding="UTF-8"?>
<svg width="136px" height="146px" viewBox="0 0 136 146" version="1.1" xmlns="http://www.w3.org/2000/svg" xmlns:xlink="http://www.w3.org/1999/xlink">
    <!-- Generator: Sketch 51.3 (57544) - http://www.bohemiancoding.com/sketch -->
    <title>illustartion-cards-10%</title>
    <desc>Created with Sketch.</desc>
    <defs></defs>
    <g id="illustartion-cards-10%" stroke="none" stroke-width="1" fill="none" fill-rule="evenodd" opacity="0.1">
        <g id="wave-graphic" fill="#000000">
            <path d="M10.5702239,0 C16.7007172,6.86231648 23.114975,13.5067816 28.9025864,20.6385458 C37.841165,31.662969 45.15401,43.7307854 51.2904151,56.4349569 C66.9920452,88.9635982 94.5112802,106.535027 129.491154,114.698718 C131.654858,115.203216 133.830385,115.679049 136,116.166348 L136,123 C125.116453,119.823957 113.872289,117.502121 103.4203,113.317082 C78.4904151,103.330319 59.1471419,86.8940107 47.0812432,63.1826148 C39.5260161,48.3343277 31.5510541,33.7268236 20.6083895,20.9710557 C14.2532493,13.5641109 6.90493371,6.96550921 0,0 L10.5702239,0 Z M35.0804023,0 C47.7953103,14.7589213 58.0188233,31.0623808 66.7064645,48.3383274 C77.129289,69.0580223 93.9066365,83.1304822 115.520222,91.8657042 C121.821986,94.4113321 128.498924,96.1046037 135,98.1868701 L135,105 C122.343713,101.859439 110.068463,97.7978752 98.8014951,91.1506402 C82.932774,81.7861618 70.1299344,69.4927813 61.7588469,53.2865704 C53.2118963,36.7371288 43.8618372,20.7254154 31.7390018,6.37837102 C29.8924384,4.19313539 27.9110466,2.12231 26,0 L35.0804023,0 Z M59.428096,0 C63.3474553,5.75642661 67.3905838,11.4386872 71.1508113,17.2921001 C77.0799473,26.5115108 82.2782554,36.2215585 88.7437249,45.0587288 C100.089239,60.5708437 115.978852,70.6346063 133.954861,77.7716625 C134.585494,78.0283912 135.316322,78.0626217 136,78.1995436 L136,85 C127.271322,81.0292637 118.106504,77.7488422 109.908265,72.9337539 C93.7770073,63.4576146 82.2605741,49.7426002 73.1429067,33.7455534 C66.5065178,22.1014833 58.4320483,11.2218941 51,0 L59.428096,0 Z M79.9147893,0 C87.7632199,13.0033211 94.103497,26.9634679 104.817419,38.1601119 C111.833349,45.4819088 119.832595,51.5735011 128.676407,56.5775214 C131.047224,57.9147002 133.556791,59.0082153 136,60.2146478 L136,68 C122.49901,61.7122881 110.343293,53.5881839 99.9973607,42.8610383 C91.6602884,34.2317777 85.808653,24.0276175 80.0354416,13.7283692 C77.4474503,9.09875896 74.6845131,4.57612306 72,0 L79.9147893,0 Z M136,140 C126.78136,138.205285 117.23693,137.28245 108.428544,134.389392 C97.7619501,130.896208 87.7167698,125.738524 77.4181975,121.26589 C76.3442983,120.79598 75.3608963,120.110931 74.4016268,119.442867 C72.5253199,118.146369 71.0833991,116.532824 72.700281,114.347461 C74.1844337,112.337606 76.2236355,112.903762 78.1301082,113.934167 C81.6594959,115.83079 85.1104527,117.874614 88.7182712,119.629698 C101.538697,125.90271 115.034834,130.364021 129.321313,132.639969 C131.559608,132.996647 133.773771,133.494865 136,133.930805 L136,140 Z M101.000979,0 C109.341071,15.7874666 120.682422,28.8676751 136,38.3343079 L136,46 C127.060831,41.2813016 119.319815,34.9604678 112.442176,27.6689971 C104.742274,19.5179865 98.4225982,10.3554087 94,0 L101.000979,0 Z M135,23 C128.656004,17.1452541 122.245674,11.3456376 116.010225,5.39165868 C114.394074,3.84252157 113.320661,1.80824545 112,0 L119.905873,0 C124.941269,5.0388303 129.970635,10.0721477 135,15.1109779 L135,23 Z M87.1184665,146 C84.6797668,144.757726 82.2071176,143.562626 79.8080256,142.25221 C77.8842253,141.198636 76.1131975,139.778145 77.4881488,137.513746 C78.834809,135.296522 80.9226981,135.936005 83.0501948,136.790396 C89.8966604,139.537028 96.7997083,142.152619 103.674465,144.841592 C104.477935,145.156092 105.224822,145.612117 106,146 L87.1184665,146 Z M30,61.3209328 C29.4390444,62.0740017 28.9009849,63.4816612 27.9736908,63.84661 C27.0292247,64.2115588 25.4093222,63.8929527 24.607957,63.2325692 C23.526114,62.3346794 22.7877132,60.8980556 22.1695172,59.565703 C17.0007116,48.466626 10.4237929,38.3059888 2.35862456,29.1417196 C0.893271043,27.4675895 0.332315402,25.7239454 2.11249096,23.9918869 C3.78390981,22.3583067 5.56408537,22.9144191 6.92068217,24.414764 C16.296655,34.7549793 23.537562,46.5202326 29.3989761,59.1891685 C29.6393857,59.6989382 29.7137981,60.2840148 30,61.3209328 Z"></path>
        </g>
    </g>
</svg>