<?xml version="1.0" encoding="UTF-8"?>
<svg width="177px" height="183px" viewBox="0 0 177 183" version="1.1" xmlns="http://www.w3.org/2000/svg" xmlns:xlink="http://www.w3.org/1999/xlink">
    <!-- Generator: Sketch 52.6 (67491) - http://www.bohemiancoding.com/sketch -->
    <title>wave-graphic copy</title>
    <desc>Created with Sketch.</desc>
    <defs>
        <linearGradient x1="100%" y1="0%" x2="30.2554774%" y2="76.8283744%" id="linearGradient-1">
            <stop stop-color="#000000" stop-opacity="0.0361186594" offset="0%"></stop>
            <stop stop-color="#000000" stop-opacity="0.238479393" offset="100%"></stop>
        </linearGradient>
    </defs>
    <g id="Pages" stroke="none" stroke-width="1" fill="none" fill-rule="evenodd">
        <path d="M13.7364921,0 C21.7033502,8.89663554 30.0389731,17.5108382 37.5602403,26.7567986 C49.1763343,41.0493885 58.6797128,56.6946833 66.6542535,73.1649793 C87.0592439,115.336667 122.821755,138.117108 168.27971,148.700908 C171.091543,149.354963 173.91874,149.971856 176.738255,150.603614 L176.738255,159.463087 C162.594585,155.345513 147.982276,152.335373 134.399436,146.909689 C102.001904,133.962372 76.8644313,112.653555 61.184241,81.912966 C51.3658758,62.6629358 41.002046,43.7250684 26.78155,27.1878804 C18.522753,17.5851626 8.97327893,9.03041953 0,0 L13.7364921,0 Z M46.2848028,0 C62.7160872,19.0521684 75.9277793,40.0981683 87.1546873,62.3995437 C100.623947,89.146425 122.305061,107.312446 150.235971,118.588671 C158.379646,121.874801 167.008154,124.060631 175.409396,126.748612 L175.409396,135.543624 C159.053867,131.4895 143.190746,126.246461 128.630613,117.665601 C108.123703,105.577074 91.578786,89.7076517 80.7609556,68.7871893 C69.7158598,47.4236532 57.632919,26.7542659 41.9667613,8.23378594 C39.5804752,5.41288349 37.0199523,2.73967227 34.5503356,0 L46.2848028,0 Z M76.0503221,0 C81.1360505,7.46949189 86.3823809,14.8427465 91.2616212,22.4380871 C98.9552194,34.4011188 105.700501,47.0007969 114.090041,58.4678365 C128.811887,78.5962294 149.430118,91.6548852 172.75564,100.915871 C173.573945,101.249 174.522261,101.293417 175.409396,101.471086 L175.409396,110.295302 C164.083135,105.142907 152.190942,100.886259 141.552975,94.6382402 C120.621187,82.3420796 105.677558,64.5455895 93.8465478,43.787953 C85.2352241,28.6787033 74.7578588,14.5614376 65.114094,0 L76.0503221,0 Z M103.373436,0 C113.639933,17.0254696 121.933622,35.3037273 135.948457,49.9636838 C145.125964,59.550237 155.589743,67.5260626 167.158295,74.0779115 C170.25955,75.8287024 173.542305,77.2604604 176.738255,78.8400629 L176.738255,89.033557 C159.077669,80.8009488 143.176829,70.163921 129.64336,56.1186867 C118.737672,44.820249 111.083173,31.4597685 103.53126,17.9747873 C100.14592,11.9131599 96.5317342,5.99159578 93.0201342,0 L103.373436,0 Z M176.738255,182.053691 C164.679392,179.668768 152.194366,178.44245 140.672154,174.597983 C126.719229,169.956034 113.579172,163.1022 100.107655,157.158699 C98.7028919,156.534256 97.416508,155.623922 96.1616918,154.736159 C93.7073029,153.013296 91.8211326,150.869121 93.9361687,147.965082 C95.8775825,145.294268 98.5450534,146.04661 101.038902,147.415872 C105.655679,149.936217 110.16986,152.652172 114.889232,154.984431 C131.659574,163.320379 149.313813,169.248833 168.001893,172.273247 C170.929798,172.747223 173.826134,173.409283 176.738255,173.988587 L176.738255,182.053691 Z M131.33684,0 C142.155771,20.5232459 156.867993,37.5271353 176.738255,49.8334816 L176.738255,59.7986577 C165.14219,53.6644875 155.100393,45.447588 146.178585,35.9688888 C136.190121,25.3728129 127.992114,13.4617291 122.255034,0 L131.33684,0 Z M175.409396,30.5637584 C166.97912,22.7836262 158.460694,15.0767533 150.174662,7.16475448 C148.027025,5.10616961 146.60061,2.40290334 144.845638,0 L155.351429,0 C162.04276,6.69589529 168.726078,13.3844647 175.409396,20.08036 L175.409396,30.5637584 Z M39.8657718,80.2448498 C39.1203408,81.2211644 38.4053356,83.0461216 37.1730925,83.5192587 C35.9180302,83.9923957 33.765408,83.5793396 32.7005066,82.7231868 C31.2628897,81.5591194 30.2816591,79.6966117 29.4601638,77.9692859 C22.5915497,63.5799113 13.8517517,50.4071748 3.13427961,38.5261776 C1.18703132,36.3557552 0.441600332,34.0952115 2.80720275,31.849688 C5.02828283,29.7318364 7.39388525,30.4528072 9.19661121,32.3979262 C21.6559577,45.8034762 31.2781026,61.0565136 39.0670958,77.4811286 C39.3865662,78.1420185 39.4854499,78.9005398 39.8657718,80.2448498 Z" id="wave-graphic-copy" fill="url(#linearGradient-1)" style="mix-blend-mode: multiply;" transform="translate(88.369128, 91.026846) rotate(180.000000) translate(-88.369128, -91.026846) "></path>
    </g>
</svg>