<?xml version="1.0" encoding="UTF-8"?>
<svg width="96px" height="111px" viewBox="0 0 96 111" version="1.1" xmlns="http://www.w3.org/2000/svg" xmlns:xlink="http://www.w3.org/1999/xlink">
    <!-- Generator: sketchtool 59.1 (101010) - https://sketch.com -->
    <title>AFD99EA9-7B76-4E4D-B8ED-5EBEBF4C9672@2x</title>
    <desc>Created with sketchtool.</desc>
    <g id="Desktop" stroke="none" stroke-width="2" fill="none" fill-rule="evenodd">
        <g id="Iconography-" transform="translate(-39.000000, -489.000000)">
            <g id="Bookmark_black-Bookmark_consumer" transform="translate(55.000000, 505.000000)" fill-rule="nonzero" stroke="#719E19">
                <g id="noun_Save_2636717-Copy" transform="translate(6.095238, 6.000000)">
                    <path d="M0,1.70431162 L0,64.9768805 C0,65.6036486 0.34879374,66.1797848 0.90792752,66.4770416 C1.4670613,66.7742984 2.14640434,66.7447032 2.67682169,66.3999807 L24.9376162,51.8281164 C25.5179458,51.4460105 26.2742364,51.4460105 26.854566,51.8281164 L49.1153605,66.3999807 C49.6463415,66.754193 50.332425,66.7890791 50.897483,66.4905985 C51.4625411,66.1921178 51.8136319,65.609365 51.8094889,64.9768805 L51.8094889,1.70431162 C51.8094889,0.763046303 51.036256,0 50.0824703,0 L1.72698173,0 C0.773196059,0 0,0.763046303 0,1.70431162 Z" id="Shape"></path>
                </g>
            </g>
            <polygon id="Rectangle" points="39 489 135 489 135 599 39 599"></polygon>
        </g>
    </g>
</svg>