<svg xmlns="http://www.w3.org/2000/svg" xmlns:xlink="http://www.w3.org/1999/xlink" width="" height="" viewBox="0 0 19 18" version="1.1" class="replaced-svg">
    <!-- Generator: Sketch 57.1 (83088) - https://sketch.com -->
    <title>internet</title>
    <desc>Created with Sketch.</desc>
    <g id="Page-1" stroke="none" stroke-width="1" fill="none" fill-rule="evenodd">
        <g id="Desktop-HD" transform="translate(-286.000000, -503.000000)">
            <g id="column" transform="translate(120.000000, 424.000000)">
                <g id="row" transform="translate(0.000000, 66.000000)">
                    <g id="internet" transform="translate(164.000000, 9.000000)">
                        <rect id="Rectangle" x="0" y="0" width="24" height="24"></rect>
                        <g id="Group-19" transform="translate(3.000000, 3.000000)" stroke-linecap="round" stroke-linejoin="round">
                            <path d="M3.065,14.8071 L3.855,14.8071" id="Stroke-1" stroke="#777E86"></path>
                            <path d="M5.4947,14.8071 L6.2847,14.8071" id="Stroke-2" stroke="#777E86"></path>
                            <path d="M7.9243,14.8071 L8.7143,14.8071" id="Stroke-3" stroke="#777E86"></path>
                            <g id="Group-8" transform="translate(1.000000, 16.968900)" stroke="#777E86">
                                <path d="M0.9976,0.3148 L0.9976,1.5008" id="Stroke-4"></path>
                                <path d="M14.9683,0.3148 L14.9683,1.5008" id="Stroke-6"></path>
                            </g>
                            <path d="M3.1236,12.3305 L3.1236,4.6355" id="Stroke-9" stroke="#777E86"></path>
                            <g id="Group-18" transform="translate(0.000000, 0.968900)">
                                <path d="M5.0826,2.7679 C5.3346,2.9859 5.4946,3.3079 5.4946,3.6669 C5.4946,4.0259 5.3356,4.3479 5.0826,4.5649" id="Stroke-10" stroke="#8BBD29"></path>
                                <path d="M6.2027,1.6497 C6.7397,2.1547 7.0757,2.8717 7.0757,3.6677 C7.0757,4.4627 6.7397,5.1787 6.2027,5.6837" id="Stroke-12" stroke="#8BBD29"></path>
                                <path d="M7.3199,0.5316 C8.1439,1.3226 8.6569,2.4346 8.6569,3.6676 C8.6569,4.8986 8.1439,6.0106 7.3209,6.8026" id="Stroke-14" stroke="#8BBD29"></path>
                                <path d="M15.9693,16.3148 C16.7973,16.3148 17.4693,15.6428 17.4693,14.8148 L17.4693,12.8618 C17.4693,12.0338 16.7973,11.3618 15.9693,11.3618 L1.9993,11.3618 C1.1713,11.3618 0.4993,12.0338 0.4993,12.8618 L0.4993,14.8148 C0.4993,15.6428 1.1713,16.3148 1.9993,16.3148 L11.9693,16.3148" id="Stroke-16" stroke="#777E86"></path>
                            </g>
                        </g>
                    </g>
                </g>
            </g>
        </g>
    </g>
</svg>