<svg xmlns="http://www.w3.org/2000/svg" xmlns:xlink="http://www.w3.org/1999/xlink" width="64px" height="64px" viewBox="0 0 64 64" version="1.1" class="replaced-svg">
    <!-- Generator: Sketch 49.3 (51167) - http://www.bohemiancoding.com/sketch -->
    <title>Flag/flag_egypt</title>
    <desc>Created with Sketch.</desc>
    <defs></defs>
    <g id="Flag/flag_egypt" stroke="none" stroke-width="1" fill="none" fill-rule="evenodd">
        <g id="Asset-64" transform="translate(4.000000, 4.000000)" fill-rule="nonzero">
            <g id="Layer_2">
                <g>
                    <g id="Layer_1-2">
                        <circle id="Oval" fill="#000000" cx="28" cy="28" r="28"></circle>
                        <path d="M28,55.63 C38.8049862,55.630604 48.6189001,49.3328217 53.12,39.51 L2.88,39.51 C7.38109991,49.3328217 17.1950138,55.630604 28,55.63 L28,55.63 Z" id="Shape" fill="#000000"></path>
                        <path d="M28,0.37 C17.1950138,0.369395963 7.38109991,6.66717832 2.88,16.49 L53.12,16.49 C48.6189001,6.66717832 38.8049862,0.369395963 28,0.37 L28,0.37 Z" id="Shape" fill="#CE1126"></path>
                        <path d="M0.37,28 C0.367313456,31.9727298 1.22353814,35.8990828 2.88,39.51 L53.12,39.51 C56.4639507,32.207964 56.4639507,23.812036 53.12,16.51 L2.88,16.51 C1.22515145,20.1143859 0.368935077,24.0338784 0.37,28 L0.37,28 Z" id="Shape" fill="#FFFFFF"></path>
                        <g id="_Path_" transform="translate(20.000000, 35.000000)" fill="#FCD116">
                            <path d="M2.21,3.69 C1.8,3.6 1.72,3.42 1.72,3.19 L1.72,3.19 C1.70722208,3.10715649 1.70722208,3.02284351 1.72,2.94 L1.72,2.94 C1.13,2.71 1.78,2.32 0.96,2.11 L0.96,2.11 L0.96,2 C1.75,2 1.42,1.6 1.79,1.56 L1.79,1.56 C1.79,1.56 1.86,1.56 1.86,1.61 L1.86,1.61 C1.8591015,1.39305571 1.94976268,1.18579814 2.10968543,1.03920229 C2.26960818,0.892606435 2.48395235,0.820275762 2.7,0.84 L2.7,0.84 C2.83616128,0.842400282 2.97111564,0.866017295 3.1,0.91 L3.1,0.91 C4.62230655,1.16942383 6.16626352,1.27994569 7.71,1.24 L8,1.24 L8,1.31 L7.73,1.31 C6.1869032,1.35712442 4.6428949,1.25329739 3.12,1 L3.12,1 C2.99738437,0.959694005 2.86906914,0.939433706 2.74,0.94 L2.74,0.94 C2.5343464,0.92343776 2.33095242,0.992326175 2.1776905,1.13045111 C2.02442859,1.26857604 1.93483601,1.46373725 1.93,1.67 L1.83,1.67 C1.62,1.67 1.83,2.02 1.19,2.1 L1.19,2.1 C1.81,2.36 1.32,2.76 1.81,2.91 L1.81,2.91 L1.81,3.19 L1.81,3.19 C1.81,3.4 1.81,3.52 2.24,3.61 L2.24,3.61 C4.15156662,3.8437296 6.07437379,3.97391967 8,4 L8,4 L8,4.08 C6.05696915,4.04212028 4.11743723,3.89857489 2.19,3.65 L2.21,3.69 Z" id="Shape"></path>
                        </g>
                        <g id="_Path_2" transform="translate(27.000000, 35.000000)" fill="#FCD116">
                            <path d="M1,4 C2.93966122,3.96111355 4.87581025,3.81757146 6.8,3.57 L6.8,3.57 C7.19,3.47 7.22,3.35 7.22,3.14 L7.22,3.14 C7.20874065,3.03363046 7.20874065,2.92636954 7.22,2.82 L7.22,2.82 C7.68,2.7 7.22,2.3 7.82,2.04 L7.82,2.04 C7.22,1.96 7.38,1.58 7.17,1.61 L7.17,1.61 C7.12383862,1.61971187 7.07616138,1.61971187 7.03,1.61 L7.03,1.61 C6.98812388,1.24461028 6.66701631,0.976287518 6.3,1 L6.3,1 C6.17095729,0.99977729 6.04269634,1.02002902 5.92,1.06 L5.92,1.06 C4.39120571,1.32142554 2.84041766,1.43195687 1.29,1.39 L1,1.39 L1,1.32 L1.27,1.32 C2.81372779,1.35956587 4.35764794,1.24904664 5.88,0.99 L5.88,0.99 C6.00880159,0.945695402 6.14380725,0.922069413 6.28,0.92 L6.28,0.92 C6.72,0.92 7.12,1.17 7.08,1.65 L7.19,1.65 C7.55,1.65 7.19,2.07 8.02,2.09 L8.02,2.09 L8.02,2.16 C7.19,2.37 7.84,2.76 7.28,2.96 L7.28,2.96 L7.28,3.24 L7.28,3.24 C7.28,3.46 7.2,3.65 6.8,3.74 L6.8,3.74 C4.87253298,3.988281 2.93301705,4.13182521 0.99,4.17 L0.99,4.17 L0.99,4 L1,4 Z" id="Shape"></path>
                        </g>
                        <path d="M24,37.3 C24,37.3 24,37.4 23.94,37.46 C23.9800759,37.5055032 24.007643,37.5606373 24.02,37.62 L23.83,37.62 C23.75,37.62 23.7,37.62 23.7,37.53 C23.7023369,37.4322685 23.6705084,37.336783 23.61,37.26 L23.56,37.41 C23.6004704,37.4552364 23.6280931,37.5104819 23.64,37.57 C23.53,37.57 23.21,37.57 23.16,37.42 C23.1070158,37.2305735 23.0735087,37.0362326 23.06,36.84 C23.0218278,36.8846304 23.0005862,36.9412748 23,37 C22.912449,37.0192563 22.8345244,37.0688447 22.78,37.14 C22.72,37.24 22.66,37.3 22.78,37.35 C22.9,37.4 22.95,37.41 23.04,37.35 C23.04,37.59 23.15,37.67 23.38,37.71 L24.1,37.86 C24.1162183,37.7338525 24.1162183,37.6061475 24.1,37.48 C24.0782957,37.4142396 24.0443678,37.3531695 24,37.3 Z M23,37.22 C23,37.22 22.86,37.22 22.91,37.17 C22.9447602,37.1408951 22.9858599,37.1203452 23.03,37.11 C23,37.17 23,37.2 23,37.22 Z M29.32,37.22 C29.44,37.28 29.43,37.22 29.5,37.14 C29.57,37.06 29.4,37.05 29.34,37.14 C29.28,37.23 29.34,37.21 29.26,37.14 C29.18,37.07 29.17,37.14 29.13,37.24 L29.27,37.31 L29.32,37.22 Z M25.52,37.37 C25.58,37.37 25.59,37.27 25.6,37.22 C25.61,37.17 25.51,37.11 25.45,37.08 C25.4272063,37.1171626 25.4103377,37.1576474 25.4,37.2 L25.4,37.38 C25.4,37.47 25.4,37.67 25.47,37.81 C25.3366323,37.8129131 25.2040297,37.7891127 25.08,37.74 C25.08,37.74 25.17,37.55 25.08,37.45 C24.99,37.35 24.79,37.35 24.75,37.45 C24.71,37.55 24.82,37.51 24.87,37.64 C24.92,37.77 24.7,37.64 24.7,37.64 C24.7019225,37.5375957 24.6663591,37.4380181 24.6,37.36 L24.6,37.48 C24.6,37.57 24.6,37.57 24.66,37.65 C24.7082556,37.7002975 24.7082556,37.7797025 24.66,37.83 C24.6011091,37.8984522 24.5152986,37.9378243 24.425,37.9378243 C24.3347014,37.9378243 24.2488909,37.8984522 24.19,37.83 C24.13,37.91 24.4,38.07 24.49,38.08 C24.58,38.09 24.78,37.94 24.78,37.83 C24.8680833,37.8554837 24.9630772,37.8326852 25.03,37.77 C25.12,37.95 25.48,37.93 25.64,37.95 C25.6520477,37.8135988 25.6520477,37.6764012 25.64,37.54 C25.5912891,37.4989216 25.5445691,37.4555388 25.5,37.41 L25.52,37.37 Z M24.97,37.57 C24.97,37.57 25.03,37.57 25.03,37.64 C25.03,37.71 25,37.61 24.95,37.61 L24.97,37.57 Z M22.97,36.62 L23.07,36.7 L23.15,36.59 L23,36.54 L22.94,36.63 L22.83,36.55 L22.76,36.66 L22.89,36.76 L22.97,36.62 Z M23.77,38 L23.93,38.12 L24,38 L23.84,37.87 L23.77,38 Z M23.5,37.9 L23.4,37.83 C23.4,37.9 23.3,37.93 23.4,37.98 L23.49,38.05 L23.55,37.95 L23.65,38.02 L23.73,37.9 L23.6,37.8 L23.5,37.9 Z M25.67,37.68 L25.67,37.94 L25.67,38.14 C25.716799,38.0681804 25.7443474,37.9855351 25.75,37.9 C25.7390808,37.6783759 25.7123461,37.4578148 25.67,37.24 C25.61,37.38 25.64,37.47 25.66,37.66 L25.67,37.68 Z M29.95,37.68 C29.95,37.74 29.95,37.8 29.89,37.86 C29.9334237,37.8948603 29.9620124,37.9448905 29.97,38 C29.89,38 29.56,38.09 29.5,38 C29.4269884,37.8153615 29.389662,37.6185496 29.39,37.42 C29.39,37.49 29.39,37.62 29.3,37.65 C29.2081455,37.7034109 29.1348574,37.7836787 29.09,37.88 C29.09,37.97 29.01,38.02 29.09,38.03 C29.17,38.04 29.27,38.03 29.35,37.92 C29.3485497,38.0098485 29.3766575,38.0976852 29.43,38.17 C29.5,38.24 29.66,38.17 29.75,38.17 C29.84,38.17 30.01,38.17 30.01,38.08 C30.0243697,37.9771662 30.0243697,37.8728338 30.01,37.77 C29.9961141,37.7191789 29.9723254,37.6716014 29.94,37.63 L29.95,37.68 Z M29.32,37.87 L29.22,37.87 C29.22,37.87 29.32,37.77 29.36,37.76 C29.4,37.75 29.37,37.78 29.31,37.82 L29.32,37.87 Z M30.53,37.87 C30.5674491,37.9016557 30.5951829,37.9432563 30.61,37.99 C30.61,38.07 30.55,38.15 30.5,38.2 C30.4418359,38.2759521 30.3614389,38.3318804 30.27,38.36 C30.18,38.36 30.1,38.27 30.05,38.36 C30.15,38.42 30.3,38.53 30.42,38.47 C30.5522948,38.4103216 30.6486669,38.2917097 30.68,38.15 C30.7112012,37.9862605 30.6751574,37.8168547 30.58,37.68 L30.53,37.87 Z M33.25,37.39 C33.14,37.39 33.07,37.23 32.95,37.19 C32.83,37.15 32.71,37.3 32.66,37.41 C32.781147,37.3557848 32.9229848,37.3794245 33.02,37.47 L32.57,37.59 C32.57,37.54 32.51,37.32 32.43,37.33 C32.35,37.34 32.26,37.49 32.23,37.58 C32.2,37.67 31.81,37.74 31.65,37.79 C31.7390428,37.7338908 31.792171,37.6352243 31.79,37.53 C31.79,37.44 31.73,37.28 31.64,37.4 C31.5823562,37.4823809 31.5384531,37.5735644 31.51,37.67 C31.51,37.79 31.44,37.82 31.31,37.83 C31.18,37.84 31.23,37.4 31.09,37.62 C30.95,37.84 30.95,38.1 31.21,38.02 C31.1519245,38.1178395 31.0644293,38.1948353 30.96,38.24 C30.9142111,38.2528004 30.8657889,38.2528004 30.82,38.24 C30.75,38.24 30.72,38.16 30.67,38.24 C30.62,38.32 30.91,38.42 31.05,38.37 C31.1334867,38.327127 31.2029047,38.2611798 31.25,38.18 C31.2534849,38.1434161 31.2534849,38.1065839 31.25,38.07 C31.25,38 31.3,38.02 31.39,38.01 C31.48,38 31.49,38.41 31.66,38.3 C31.83,38.19 31.83,38.01 31.66,37.96 C31.78,37.96 31.91,37.96 32.03,37.88 C32.0870334,37.858014 32.1335288,37.8150951 32.16,37.76 C32.2513466,37.7872343 32.3486534,37.7872343 32.44,37.76 L32.98,37.64 L33.26,37.57 L33.26,37.4 C33.33,37.29 33.32,37.35 33.24,37.32 L33.25,37.39 Z M31.65,37.62 C31.65,37.62 31.73,37.56 31.73,37.62 C31.73,37.68 31.63,37.72 31.59,37.74 L31.65,37.62 Z M31.74,38.12 C31.7001376,38.1288053 31.6584082,38.1209831 31.6244411,38.0983383 C31.590474,38.0756936 31.5672037,38.0401827 31.56,38 C31.6094125,37.9891598 31.6605875,37.9891598 31.71,38 C31.71,38 31.75,38 31.69,38.06 L31.74,38.12 Z M32.35,37.59 C32.41,37.42 32.49,37.59 32.48,37.59 C32.4169772,37.5805784 32.3560711,37.5602764 32.3,37.53 L32.35,37.59 Z M32.87,37.94 L33.03,37.94 L33.12,37.76 L32.95,37.76 L32.87,37.94 Z M29.87,38.31 C29.87,38.37 29.87,38.38 29.79,38.31 C29.71,38.24 29.7,38.36 29.67,38.43 C29.64,38.5 29.78,38.53 29.82,38.43 C29.86,38.33 29.82,38.35 29.9,38.43 C29.98,38.51 29.99,38.37 30.03,38.3 C30.07,38.23 29.91,38.16 29.86,38.25 L29.87,38.31 Z M28.26,38 L28,38 C28.0171677,37.9242944 28.0171677,37.8457056 28,37.77 C27.89,37.54 27.6,37.77 27.48,37.89 C27.36,38.01 27.32,38.01 27.24,37.98 C27.16,37.95 27.24,37.8 27.15,37.77 C27.06,37.74 27.09,37.98 26.97,37.97 C26.85,37.96 26.97,37.97 26.91,37.86 C26.8896478,37.7966358 26.8554942,37.7385748 26.81,37.69 L26.81,37.81 L26.81,37.97 C26.81,38.05 26.81,38.1 26.76,38.16 C26.71,38.22 26.47,38.36 26.31,38.22 C26.25,38.29 26.38,38.35 26.44,38.38 C26.4947229,38.4282162 26.5677729,38.4501312 26.64,38.44 C26.7744624,38.4063803 26.8764189,38.2965809 26.9,38.16 C26.9876379,38.1771993 27.0773093,38.1421105 27.13,38.07 C27.19,38.21 27.34,38.18 27.48,38.19 L28,38.19 L28.29,38.19 L28.42,38.19 C28.4962951,38.200674 28.5737049,38.200674 28.65,38.19 C28.6611743,38.0677532 28.6440661,37.9445745 28.6,37.83 C28.46,37.6 28.36,37.88 28.26,38 Z M27.7,38 L27.51,38 C27.62,37.93 27.74,37.83 27.88,37.88 C28.02,37.93 27.74,38 27.7,38 L27.7,38 Z M28.36,37.95 C28.36,37.79 28.5,37.95 28.48,37.95 C28.4460039,37.9720078 28.4089348,37.9888574 28.37,38 L28.36,37.95 Z" id="Shape" fill="#FCD116"></path>
                        <g id="_Path_3" transform="translate(19.000000, 21.000000)" fill="#FCD116">
                            <path d="M0.94,14.77 C0.94,14.77 1.37,4.99 1.51,1.65 L1.51,1.65 C1.51,0.6 2.03,0.21 2.65,0.21 L2.65,0.21 C3.33497574,0.280851255 3.99145933,0.521447334 4.56,0.91 L4.56,0.91 C5.03802619,1.1905939 5.58604311,1.32933237 6.14,1.31 L6.14,1.31 C7.03,1.31 7.98,1.07 9,1.07 L9,1.07 C10,1.07 11,1.31 11.86,1.31 L11.86,1.31 C12.4104678,1.32634161 12.9544588,1.18774516 13.43,0.91 L13.43,0.91 C13.9983457,0.521068667 14.6549284,0.280436255 15.34,0.21 L15.34,0.21 C15.96,0.21 16.45,0.6 16.48,1.65 L16.48,1.65 C16.62,4.99 17.05,14.76 17.05,14.77 L17.05,14.77 L17.05,14.77 L0.97,14.77 L0.94,14.77 Z M16.94,14.77 C16.94,14.09 16.51,4.91 16.37,1.68 L16.37,1.68 C16.37,0.68 15.89,0.32 15.3,0.32 L15.3,0.32 C14.6289182,0.39062417 13.986118,0.627807151 13.43,1.01 L13.43,1.01 C12.9426318,1.29550631 12.3845627,1.43762327 11.82,1.42 L11.82,1.42 C10.92,1.42 9.97,1.18 8.96,1.18 L8.96,1.18 C7.96,1.18 6.96,1.42 6.1,1.42 L6.1,1.42 C5.54799117,1.42712102 5.00472116,1.28178764 4.53,1 L4.53,1 C3.97019429,0.617763013 3.32416268,0.380655667 2.65,0.31 L2.65,0.31 C2.06,0.31 1.65,0.64 1.58,1.67 L1.58,1.67 C1.44,5 1,14.72 1,14.73 L17,14.73 L16.94,14.77 Z" id="Shape"></path>
                        </g>
                        <g id="_Path_4" transform="translate(25.000000, 16.000000)">
                            <g id="_Path_5">
                                <path d="M4.3,6.57 C4.67329483,6.74141089 5.07923156,6.83010295 5.49,6.83 C4.85490865,5.9632216 4.54034277,4.90288715 4.6,3.83 C5.02,1.98 4.6,1.25 3.78,1.05 C3.40228445,0.911566821 2.98771555,0.911566821 2.61,1.05 C2.37593737,1.16732525 2.16302961,1.32278171 1.98,1.51 C1.74880595,1.3900733 1.50358925,1.29937671 1.25,1.24 C0.95,1.19 0.5,1.24 0.5,1.89 L0.6,1.79 C0.860467845,1.8417728 1.10839509,1.94366071 1.33,2.09 C1.63845079,2.54514065 1.82442879,3.07207832 1.87,3.62 C2.07,4.99 0.5,6.85 0.5,6.85 C0.914072407,6.85091397 1.32343947,6.76221777 1.7,6.59 C1.57237078,6.78752186 1.42126869,6.96884436 1.25,7.13 C1.72255276,6.97778995 2.15839902,6.72922138 2.53,6.4 L3,7 L3.46,6.37 C3.83243697,6.69805269 4.26802748,6.94647541 4.74,7.1 C4.57251593,6.94170561 4.42477797,6.76374851 4.3,6.57 L4.3,6.57 Z" id="Shape" fill="#FFFFFF"></path>
                                <path d="M4.74,7.15 C4.26641053,7.01544193 3.83575536,6.76049407 3.49,6.41 L3.49,6.41 L3,7.08 L3,7.08 L2.59,6.45 C2.21601957,6.78352478 1.77669877,7.03553827 1.3,7.19 L1.3,7.19 L1.18,7.19 L1.27,7.11 C1.46,6.94 1.53,6.84 1.76,6.63 L1.76,6.63 C1.37768115,6.80727721 0.961419687,6.89940064 0.54,6.9 L0.46,6.9 L0.51,6.84 C1.24154382,5.98875913 1.71965298,4.9493914 1.89,3.84 L1.89,3.84 C1.89681968,3.75680619 1.89681968,3.67319381 1.89,3.59 L1.89,3.59 C1.8466422,3.05089736 1.66777323,2.53148939 1.37,2.08 L1.37,2.08 C1.15900065,1.94770439 0.929957946,1.84665614 0.69,1.78 L0.69,1.78 L0.52,1.94 L0.52,1.85 C0.52,1.3 0.85,1.15 1.14,1.15 L1.32,1.15 C1.56897401,1.19811283 1.80652722,1.29313411 2.02,1.43 L2.02,1.43 C2.18959971,1.25715189 2.38532324,1.11204652 2.6,1 L2.6,1 C2.78116869,0.927054589 2.97469756,0.889706913 3.17,0.89 L3.17,0.89 C3.37615887,0.895978016 3.58089896,0.92618557 3.78,0.98 L3.78,0.98 C4.38,1.13 4.78,1.59 4.78,2.56 L4.78,2.56 C4.77361424,2.98134145 4.71994478,3.4006341 4.62,3.81 L4.62,3.81 C4.58627021,3.96437884 4.56950412,4.12198013 4.57,4.28 L4.57,4.28 C4.65253253,5.19504679 4.97695519,6.07167822 5.51,6.82 L5.51,6.82 L5.51,6.88 L5.44,6.88 C5.07110497,6.87668391 4.70561996,6.8090015 4.36,6.68 L4.36,6.68 C4.46453966,6.8325444 4.58523865,6.9733599 4.72,7.1 L4.72,7.1 L4.81,7.19 L4.69,7.19 L4.74,7.15 Z M1.38,7 C1.79733254,6.81779215 2.19309984,6.58972286 2.56,6.32 L2.56,6.32 L3,7 L3.49,6.4 C3.83024884,6.69004818 4.21523472,6.92306595 4.63,7.09 L4.63,7.09 C4.49583762,6.95189987 4.37528156,6.80120479 4.27,6.64 L4.27,6.64 L4.27,6.64 L4.27,6.64 C4.61380643,6.80446903 4.98894118,6.89313724 5.37,6.9 L5.37,6.9 C4.84842142,6.15190089 4.53442856,5.27893172 4.46,4.37 L4.46,4.37 C4.45748042,4.2052748 4.47426139,4.0408213 4.51,3.88 L4.51,3.88 C4.60855311,3.47715937 4.66221317,3.06464763 4.67,2.65 L4.67,2.65 C4.67,1.65 4.28,1.28 3.67,1.14 L3.67,1.14 C3.47701211,1.09100097 3.27906762,1.06416104 3.08,1.06 L3.08,1.06 C2.89128036,1.06077525 2.70450091,1.09813114 2.53,1.17 L2.53,1.17 C2.29553588,1.29760189 2.07443364,1.44835341 1.87,1.62 L1.87,1.62 C1.64126817,1.50483564 1.39953898,1.41754455 1.15,1.36 L0.98,1.36 C0.73,1.36 0.47,1.46 0.44,1.91 L0.44,1.91 L0.51,1.85 C0.774297166,1.90481542 1.02554842,2.01006932 1.25,2.16 L1.25,2.16 C1.564809,2.62386169 1.75427901,3.16126754 1.8,3.72 L1.8,3.72 C1.80616444,3.80655705 1.80616444,3.89344295 1.8,3.98 L1.8,3.98 C1.64113935,5.06424825 1.17628518,6.08068311 0.46,6.91 L0.46,6.91 C0.851422754,6.90376776 1.23945577,6.83628376 1.61,6.71 L1.61,6.71 C1.50214917,6.86932846 1.38176782,7.01980514 1.25,7.16 L1.38,7 Z" id="Shape" fill="#FCD116"></path>
                            </g>
                        </g>
                        <g id="_Path_6" transform="translate(27.000000, 16.000000)" fill="#FCD116">
                            <path d="M2.56,1.59 C2.41963115,1.3479569 2.20093326,1.16100549 1.94,1.06 C1.50491368,0.861455026 1.00508632,0.861455026 0.57,1.06 C0.354820999,1.1617847 0.163887759,1.30839415 0.01,1.49 C0.255207643,1.48513249 0.493653785,1.57054603 0.68,1.73 C0.87,1.98 1.09,1.73 1.27,1.63 C1.43604349,1.49423665 1.6310603,1.39843892 1.84,1.35 C2.09466664,1.37636818 2.34044578,1.45829455 2.56,1.59 L2.56,1.59 Z" id="Shape"></path>
                            <path d="M0.65,1.77 C0.49,1.55 0.05,1.54 0.01,1.54 L0.01,1.54 L0.01,1.54 L0.01,1.54 C0.16950946,1.35340186 0.367325203,1.20333474 0.59,1.1 L0.59,1.1 C0.838481772,1.00092454 1.10257979,0.946750588 1.37,0.94 L1.37,0.94 C1.58152449,0.901747643 1.79949887,0.922507108 2,1 L2,1 C2.2682467,1.10247043 2.49384958,1.29282286 2.64,1.54 L2.64,1.54 L2.64,1.54 L2.64,1.54 L2.4,1.42 L2.4,1.42 C2.27103068,1.35905664 2.13215486,1.32179727 1.99,1.31 L1.99,1.31 C1.78371155,1.35744075 1.59172567,1.45343369 1.43,1.59 L1.43,1.59 C1.31,1.67 1.18,1.8 1.02,1.81 L1.02,1.81 C0.930015574,1.80460761 0.848130995,1.75622127 0.8,1.68 L0.65,1.77 Z M0.71,1.77 C0.745148167,1.83089946 0.809694553,1.86886792 0.88,1.87 L0.88,1.87 C0.99,1.87 1.13,1.75 1.25,1.67 L1.25,1.67 C1.41734044,1.52831185 1.61624522,1.42885946 1.83,1.38 L1.89,1.38 C2.08904917,1.40006916 2.2824761,1.45775789 2.46,1.55 L2.46,1.55 C2.31918137,1.37059858 2.1326509,1.23242786 1.92,1.15 L1.92,1.15 C1.74368321,1.0487283 1.54330765,0.99690703 1.34,1 L1.34,1 C1.08299719,1.00433701 0.828901445,1.05515616 0.59,1.15 L0.59,1.15 C0.3980118,1.25096407 0.217039219,1.37161246 0.05,1.51 L0.05,1.51 C0.299150314,1.50338599 0.540529151,1.59705539 0.72,1.77 L0.71,1.77 Z" id="Shape"></path>
                        </g>
                        <circle id="Oval" fill="#FFFFFF" cx="27.8" cy="17.43" r="1"></circle>
                        <path d="M25.55,17.7 C25.918467,17.6165125 26.3045911,17.6661065 26.64,17.84 C26.946842,18.0021791 27.213388,18.2311352 27.42,18.51 C27.42,18.51 27.2,18.24 27.01,18.38 C26.82,18.52 26.79,19.05 26.79,19.05 C26.7716007,18.7361008 26.656305,18.4356331 26.46,18.19 C26.1772672,17.9910026 25.8717682,17.8265031 25.55,17.7 L25.55,17.7 Z" id="Shape" fill="#FFCC00"></path>
                        <path d="M26.6,22.66 C26.9690983,22.1817172 27.1851938,21.6031389 27.22,21 L27.22,21 C27.2280204,20.8968223 27.2280204,20.7931777 27.22,20.69 L27.29,20.69 C27.2991927,20.7964686 27.2991927,20.9035314 27.29,21.01 L27.29,21.01 C27.254702,21.6269119 27.0352544,22.219072 26.66,22.71 L26.66,22.71 L26.6,22.71 L26.6,22.66 Z" id="Shape" fill="#FCD116"></path>
                        <path d="M28.7,21 C28.6906561,20.893538 28.6906561,20.786462 28.7,20.68 L28.78,20.68 C28.7703884,20.7831098 28.7703884,20.8868902 28.78,20.99 L28.78,20.99 C28.8131519,21.5874061 29.0296476,22.1600722 29.4,22.63 L29.4,22.63 L29.34,22.63 C28.9693095,22.1624061 28.7464814,21.5948907 28.7,21 Z" id="Shape" fill="#FCD116"></path>
                        <path d="M27.45,22.42 C27.6369692,22.000868 27.7389371,21.5488101 27.75,21.09 L27.75,21.09 C27.7611212,20.9735984 27.7611212,20.8564016 27.75,20.74 L27.82,20.74 C27.830822,20.859756 27.830822,20.980244 27.82,21.1 L27.82,21.1 C27.8111416,21.5730246 27.7056473,22.0392415 27.51,22.47 L27.51,22.47 L27.45,22.47 L27.45,22.42 Z" id="Shape" fill="#FCD116"></path>
                        <path d="M28.13,21.06 C28.1202141,20.9435385 28.1202141,20.8264615 28.13,20.71 L28.2,20.71 C28.1906767,20.8231416 28.1906767,20.9368584 28.2,21.05 L28.2,21.05 C28.2084074,21.5155707 28.3104333,21.974687 28.5,22.4 L28.5,22.4 L28.44,22.4 C28.2382291,21.9638252 28.1292607,21.4904937 28.12,21.01 L28.13,21.06 Z" id="Shape" fill="#FCD116"></path>
                        <polygon id="Shape" fill="#FCD116" points="25.42 30.27 24.58 31.18 24.96 24.64 25.72 24.55"></polygon>
                        <polygon id="Shape" fill="#FCD116" points="20.82 34.74 19.98 35.65 20.53 22.46 21.37 22.13"></polygon>
                        <polygon id="Shape" fill="#FCD116" points="22.08 33.59 21.23 34.5 21.78 22.34 22.62 23.17"></polygon>
                        <polygon id="Shape" fill="#FCD116" points="23.33 32.43 22.5 33.34 22.94 23.4 23.69 24"></polygon>
                        <polygon id="Shape" fill="#FCD116" points="24.4 31.33 23.56 32.23 23.97 24.23 24.71 24.55"></polygon>
                        <polygon id="Shape" fill="#FCD116" points="30.59 30.27 31.43 31.18 31.04 24.64 30.27 24.55"></polygon>
                        <polygon id="Shape" fill="#FCD116" points="35.18 34.74 36.02 35.65 35.47 22.46 34.63 22.13"></polygon>
                        <polygon id="Shape" fill="#FCD116" points="33.92 33.59 34.77 34.5 34.22 22.34 33.38 23.17"></polygon>
                        <polygon id="Shape" fill="#FCD116" points="32.66 32.43 33.51 33.34 33.06 23.4 32.31 24"></polygon>
                        <polygon id="Shape" fill="#FCD116" points="31.6 31.33 32.45 32.23 32.02 24.23 31.29 24.55"></polygon>
                        <polygon id="Shape" fill="#FCD116" points="28.18 30.32 28.48 35.14 28 35.75 27.52 35.15 27.82 30.32"></polygon>
                        <polygon id="Shape" fill="#FCD116" points="28.34 30.32 29.77 34.88 29.45 35.62 28.84 35.18 28 30.43"></polygon>
                        <polygon id="Shape" fill="#FCD116" points="27.65 30.32 26.23 34.88 26.55 35.62 27.15 35.18 28 30.43"></polygon>
                        <polygon id="Shape" fill="#FFFFFF" points="25.75 36.39 22.76 35.35 25.29 28.25 27.81 29.85"></polygon>
                        <path d="M22.73,35.34 L25.27,28.18 L27.85,29.86 L25.78,36.4 L25.78,36.4 L25.78,36.4 L22.78,35.32 L22.73,35.34 Z M22.73,35.34 L25.68,36.34 L27.75,29.88 L25.31,28.3 L22.78,35.3 L22.73,35.34 Z" id="Shape" fill="#FCD116"></path>
                        <polygon id="Shape" fill="#FCD116" points="24.81 31.05 24.54 30.27 24.61 30.25 24.86 30.97 25.61 30.24 25.67 30.29 24.83 31.11 24.81 31.05"></polygon>
                        <polygon id="Shape" fill="#FCD116" points="25.48 28.99 25.56 28.98 25.9 31.58 26.69 30.52 26.75 30.57 25.84 31.78 25.48 28.99"></polygon>
                        <polygon id="Shape" fill="#FCD116" points="26.5 30.91 26.57 30.87 27.13 31.91 27.07 31.95 26.5 30.91"></polygon>
                        <polygon id="Shape" fill="#FCD116" points="25.56 32.01 24.97 32.85 24.95 32.77 24.74 31.76 23.93 32.21 23.93 32.21 23.89 32.15 24.76 31.71 25 32.68 25.59 31.83 25.96 33.43 26.8 32.81 26.84 32.87 25.91 33.56 25.56 32.01"></polygon>
                        <polygon id="Shape" fill="#FCD116" points="25.97 33.88 25.09 34.79 24.82 33.59 23.99 34.36 23.54 33.21 23.61 33.18 24.02 34.23 24.87 33.45 25.14 34.64 26.01 33.72 26.25 34.84 26.18 34.86 25.97 33.88"></polygon>
                        <polygon id="Shape" fill="#FCD116" points="25.09 36.07 24.94 35.13 24.12 35.74 23.89 34.67 22.96 35.43 22.91 35.38 23.93 34.54 24.17 35.61 25 34.99 25.01 35.06 25.16 35.99 26.12 35.1 26.18 35.16 25.1 36.14 25.09 36.07"></polygon>
                        <polygon id="Shape" fill="#FFFFFF" points="30.26 36.41 33.24 35.37 30.72 28.26 28.2 29.87"></polygon>
                        <path d="M30.26,36.41 L30.26,36.41 L28.21,29.83 L30.77,28.19 L33.29,35.4 L30.29,36.4 L30.29,36.4 L30.26,36.41 Z M28.26,29.86 L30.32,36.36 L33.24,35.36 L30.73,28.29 L28.27,29.83 L28.26,29.86 Z" id="Shape" fill="#FCD116"></path>
                        <polygon id="Shape" fill="#FCD116" points="30.34 30.31 30.39 30.25 31.14 30.99 31.39 30.26 31.46 30.29 31.18 31.13 30.34 30.31"></polygon>
                        <polygon id="Shape" fill="#FCD116" points="29.25 30.58 29.31 30.54 30.11 31.59 30.45 29.01 30.52 29.02 30.16 31.79 29.25 30.58"></polygon>
                        <polygon id="Shape" fill="#FCD116" points="28.87 31.94 29.44 30.89 29.5 30.92 28.94 31.97 28.87 31.94"></polygon>
                        <polygon id="Shape" fill="#FCD116" points="29.16 32.89 29.21 32.83 30.04 33.45 30.41 31.85 31 32.69 31.25 31.69 32.11 32.17 32.08 32.24 31.3 31.8 31.04 32.87 30.45 32.03 30.09 33.57 29.16 32.89"></polygon>
                        <polygon id="Shape" fill="#FCD116" points="29.75 34.86 30 33.74 30.87 34.66 31.14 33.47 31.99 34.25 32.39 33.2 32.46 33.23 32.02 34.38 31.19 33.61 30.91 34.81 30.04 33.89 29.83 34.88 29.75 34.86"></polygon>
                        <polygon id="Shape" fill="#FCD116" points="29.83 35.18 29.88 35.12 30.85 36.01 31.01 35.01 31.84 35.63 32.08 34.56 33.09 35.39 33.09 35.39 33.05 35.45 32.12 34.69 31.88 35.76 31.07 35.15 30.9 36.16 29.83 35.18"></polygon>
                        <g id="_Path_7" transform="translate(28.000000, 35.000000)">
                            <g id="_21315904">
                                <path d="M3.12,0.75 C2.39326546,0.870823131 1.65469897,0.904394334 0.92,0.85 C0.54,0.85 0.27,1.48 1,1.58 C1.73752474,1.64285343 2.48002831,1.61261572 3.21,1.49 C3.68,1.4 4.69,1.22 5.34,1.04 C5.99,0.86 5.52,0.21 5.15,0.29 C4.48745843,0.500092549 3.80838837,0.653970494 3.12,0.75 L3.12,0.75 Z" id="Shape" fill="#FFFFFF"></path>
                                <path d="M1,1.61 C0.66,1.61 0.51,1.4 0.51,1.22 L0.51,1.22 C0.520692256,0.990362399 0.710113745,0.809751211 0.94,0.81 L0.94,0.81 C1.13314897,0.821940454 1.32685103,0.821940454 1.52,0.81 L1.52,0.81 C2.06224694,0.801825975 2.60338856,0.75840103 3.14,0.68 L3.14,0.68 C3.81849026,0.583580283 4.48756274,0.429693614 5.14,0.22 L5.23,0.22 C5.4712386,0.21863142 5.67433979,0.400126099 5.7,0.64 L5.7,0.64 C5.7,0.79 5.6,0.94 5.35,1.04 L5.35,1.04 C4.7,1.22 3.68,1.41 3.22,1.49 L3.22,1.49 C2.69746484,1.57393945 2.16922781,1.61740199 1.64,1.62 L1.64,1.62 C1.42685428,1.63265309 1.21314572,1.63265309 1,1.62 L1,1.61 Z M0.58,1.22 C0.58,1.35 0.68,1.5 1.01,1.54 L1.01,1.54 C1.21975643,1.55430383 1.43024357,1.55430383 1.64,1.54 L1.64,1.54 C2.16258012,1.53709022 2.68414626,1.49362638 3.2,1.41 L3.2,1.41 C3.67,1.33 4.68,1.14 5.32,0.96 L5.32,0.96 C5.54,0.86 5.62,0.74 5.62,0.63 L5.62,0.63 C5.59515553,0.432566499 5.42896119,0.283417725 5.23,0.28 L5.16,0.28 C4.50739589,0.491411477 3.83845952,0.648611522 3.16,0.75 L3.16,0.75 C2.62322251,0.826923134 2.08217519,0.870340511 1.54,0.88 L1.54,0.88 C1.34685915,0.892200541 1.15314085,0.892200541 0.96,0.88 L0.96,0.88 C0.780048858,0.889404523 0.634770814,1.03040968 0.62,1.21 L0.58,1.22 Z" id="Shape" fill="#FCD116"></path>
                            </g>
                            <g id="path2035" fill="#FCD116">
                                <path d="M1,1.61 C0.65,1.61 0.51,1.39 0.51,1.21 L0.51,1.21 C0.515271988,0.991307048 0.691307048,0.815271988 0.91,0.81 L1.22,0.81 C1.91,0.81 3.04,0.71 3.13,0.7 L3.13,0.7 C3.13,0.7 4.59,0.39 5.13,0.24 L5.22,0.24 C5.46638372,0.244279755 5.66950209,0.434433127 5.69,0.68 L5.69,0.68 C5.69,0.83 5.59,0.98 5.33,1.07 L5.33,1.07 C4.62706357,1.26577205 3.91225173,1.41608295 3.19,1.52 L3.19,1.52 C3.19,1.52 2.19,1.64 1.43,1.64 L1.43,1.64 C1.27681037,1.64938822 1.12318963,1.64938822 0.97,1.64 L1,1.61 Z M0.58,1.21 C0.58,1.35 0.68,1.5 1.01,1.54 L1.01,1.54 C1.15980818,1.55072799 1.31019182,1.55072799 1.46,1.54 L1.46,1.54 C2.19,1.54 3.21,1.42 3.21,1.42 L3.21,1.42 C3.92176322,1.32630479 4.62661091,1.18600336 5.32,1 L5.32,1 C5.55,0.92 5.62,0.8 5.62,0.68 L5.62,0.68 C5.596296,0.478725321 5.43224281,0.323085123 5.23,0.31 L5.16,0.31 C4.59,0.47 3.16,0.78 3.16,0.78 L3.16,0.78 L3.16,0.78 C3.16,0.78 1.97,0.89 1.24,0.89 L0.93,0.89 C0.757526675,0.899879402 0.619879402,1.03752667 0.61,1.21 L0.58,1.21 Z" id="Shape"></path>
                            </g>
                        </g>
                        <path d="M31.57,36.37 C31.5417122,36.6387019 31.4637207,36.899804 31.34,37.14 C31.34,37.14 30.91,36.69 30.88,36.43 C30.835796,36.2155633 30.9678777,36.0042327 31.18,35.95 C31.37,35.94 31.54,36.13 31.57,36.37 Z" id="Shape" fill="#FFFFFF"></path>
                        <path d="M31.31,37.17 C31.1017697,36.9640176 30.9413229,36.7148131 30.84,36.44 L30.84,36.44 C30.84,36.44 30.84,36.44 30.84,36.38 L30.84,36.38 C30.8193092,36.1656693 30.9603409,35.9690797 31.17,35.92 L31.17,35.92 C31.3966145,35.9497928 31.5669812,36.1414554 31.57,36.37 L31.57,36.37 L31.57,36.37 L31.57,36.37 C31.5364625,36.6312433 31.4586842,36.8848683 31.34,37.12 L31.34,37.12 L31.34,37.12 L31.34,37.12 L31.31,37.17 Z M31.2,36 L31.2,36 C31.0249706,36.0439508 30.9095276,36.2107018 30.93,36.39 L30.93,36.39 C30.93,36.39 30.93,36.39 30.93,36.44 L30.93,36.44 C31.0201011,36.6798111 31.159814,36.8978995 31.34,37.08 L31.34,37.08 C31.4426118,36.8690108 31.5101633,36.6427131 31.54,36.41 L31.54,36.41 L31.54,36.41 C31.5382403,36.2229927 31.4039801,36.0635586 31.22,36.03 L31.22,36.03 L31.2,36 Z" id="Shape" fill="#FCD116"></path>
                        <path d="M28.93,36.58 C28.93,36.83 28.68,36.7 28.49,37.22 C28.2937155,37.0274756 28.2040734,36.7510794 28.25,36.48 C28.25,36.23 28.46,36.05 28.65,36.08 C28.7542308,36.1079268 28.8427571,36.1767809 28.895481,36.2709306 C28.9482048,36.3650804 28.9606532,36.4765382 28.93,36.58 L28.93,36.58 Z" id="Shape" fill="#FFFFFF"></path>
                        <path d="M28.46,37.24 C28.3013256,37.0755204 28.208771,36.8583729 28.2,36.63 L28.2,36.63 C28.1957265,36.5767523 28.1957265,36.5232477 28.2,36.47 L28.2,36.47 C28.2078734,36.2452829 28.3770478,36.059191 28.6,36.03 L28.6,36.03 C28.8041367,36.0789507 28.9407815,36.2711075 28.92,36.48 L28.92,36.48 L28.92,36.57 L28.92,36.57 C28.86,36.86 28.65,36.71 28.48,37.22 L28.48,37.22 L28.48,37.28 L28.48,37.23 L28.46,37.24 Z M28.29,36.48 C28.2847775,36.5298636 28.2847775,36.5801364 28.29,36.63 L28.29,36.63 C28.2954121,36.8180686 28.3661253,36.9983873 28.49,37.14 L28.49,37.14 C28.68,36.67 28.89,36.77 28.9,36.56 L28.9,36.56 L28.9,36.48 L28.9,36.48 C28.9,36.28 28.79,36.12 28.65,36.1 L28.65,36.1 C28.4620517,36.1292451 28.3226155,36.289808 28.32,36.48 L28.29,36.48 Z" id="Shape" fill="#FCD116"></path>
                        <path d="M33.4,36 C33.53,36.21 33.68,36 34.05,36.43 C34.1561768,36.1788108 34.1338053,35.8917101 33.99,35.66 C33.89878,35.4585945 33.6670343,35.3623982 33.46,35.44 C33.2992639,35.5836148 33.2733377,35.8255925 33.4,36 L33.4,36 Z" id="Shape" fill="#FFFFFF"></path>
                        <path d="M34,36.49 C33.64,36.08 33.51,36.3 33.35,36.06 L33.35,36.06 L33.35,36.06 L33.35,36.06 C33.44,36.23 33.59,36.06 33.95,36.43 L33.95,36.43 C33.9640911,36.3338469 33.9640911,36.2361531 33.95,36.14 L33.95,36.14 C33.9478845,36.0012363 33.9062581,35.8659506 33.83,35.75 L33.83,35.75 C33.7607496,35.6165564 33.629433,35.5265107 33.48,35.51 L33.48,35.51 C33.4407728,35.4988801 33.3992272,35.4988801 33.36,35.51 L33.36,35.51 C33.2753564,35.5681109 33.2293059,35.6678871 33.24,35.77 L33.24,35.77 C33.2401013,35.8613094 33.264244,35.9509823 33.31,36.03 L33.31,36.03 L33.31,36.03 L33.31,36.03 C33.2570275,35.9389359 33.2294043,35.835349 33.23,35.73 L33.23,35.73 C33.2205997,35.6044416 33.2774805,35.483096 33.38,35.41 L33.38,35.41 C33.4324729,35.3964516 33.4875271,35.3964516 33.54,35.41 L33.54,35.41 C33.7196114,35.4226487 33.879243,35.5290698 33.96,35.69 L33.96,35.69 C34.0425152,35.8184378 34.0875382,35.96736 34.09,36.12 L34.09,36.12 C34.0885219,36.2489051 34.0683105,36.3769105 34.03,36.5 L34.03,36.5 L34.03,36.56 L34.03,36.51 L34,36.49 Z" id="Shape" fill="#FCD116"></path>
                        <polygon id="Shape" fill="#FCD116" points="29.34 36.28 29.34 36.2 29.83 36.2 29.83 36.28 29.34 36.28"></polygon>
                        <polygon id="Shape" fill="#FCD116" points="30.12 36.17 30.59 36.16 30.59 36.23 30.12 36.25 30.12 36.17"></polygon>
                        <polygon id="Shape" fill="#FCD116" points="31.75 35.99 32.2 35.89 32.22 35.97 31.77 36.06 31.75 35.99"></polygon>
                        <polygon id="Shape" fill="#FCD116" points="32.46 35.82 32.91 35.73 32.93 35.8 32.48 35.9 32.46 35.82"></polygon>
                        <g id="_Path_8" transform="translate(22.000000, 35.000000)">
                            <g id="_21315904-2">
                                <path d="M2.92,0.75 C3.65005402,0.871239992 4.39197986,0.904811297 5.13,0.85 C5.51,0.85 5.78,1.48 5.05,1.58 C4.31247762,1.6429598 3.56996069,1.61272155 2.84,1.49 C2.37,1.4 1.36,1.22 0.71,1.04 C0.06,0.86 0.53,0.21 0.89,0.29 C1.5527014,0.499502998 2.23172155,0.653369634 2.92,0.75 Z" id="Shape" fill="#FFFFFF"></path>
                                <path d="M2.83,1.51 C2.36,1.43 1.35,1.24 0.69,1.06 L0.69,1.06 C0.45,0.96 0.34,0.81 0.34,0.66 L0.34,0.66 C0.365230612,0.423904451 0.562589078,0.243707591 0.8,0.24 L0.89,0.24 C1.54239876,0.449833514 2.21148325,0.603722948 2.89,0.7 L2.89,0.7 C3.4265955,0.778541866 3.96774633,0.821967549 4.51,0.83 L4.51,0.83 C4.70649031,0.84177864 4.90350969,0.84177864 5.1,0.83 L5.1,0.83 C5.32211366,0.840111527 5.49988847,1.01788634 5.51,1.24 L5.51,1.24 C5.51,1.42 5.36,1.59 5.02,1.63 L5.02,1.63 C4.80685853,1.64279552 4.59314147,1.64279552 4.38,1.63 L4.38,1.63 C3.85077045,1.62744184 3.32253036,1.58397904 2.8,1.5 L2.83,1.51 Z M0.42,0.65 C0.42,0.76 0.49,0.88 0.72,0.98 L0.72,0.98 C1.37,1.16 2.38,1.34 2.84,1.43 L2.84,1.43 C3.35917507,1.51394229 3.88408904,1.5574065 4.41,1.56 L4.41,1.56 C4.61975643,1.57430383 4.83024357,1.57430383 5.04,1.56 L5.04,1.56 C5.37,1.56 5.47,1.37 5.47,1.24 L5.47,1.24 C5.45966919,1.05834721 5.31188019,0.914904941 5.13,0.91 L5.13,0.91 C4.93351557,0.921973284 4.73648443,0.921973284 4.54,0.91 L4.54,0.91 C3.99448714,0.9007043 3.45009031,0.857286147 2.91,0.78 L2.91,0.78 L2.91,0.78 C2.2315233,0.678701057 1.56257961,0.52149929 0.91,0.31 L0.84,0.31 C0.6426781,0.317527755 0.478753843,0.464639268 0.45,0.66 L0.42,0.65 Z" id="Shape" fill="#FCD116"></path>
                            </g>
                            <g id="path2035-2" fill="#FCD116">
                                <path d="M2.83,1.51 C2.11080653,1.40740015 1.39923536,1.25706821 0.7,1.06 L0.7,1.06 C0.45,0.97 0.34,0.83 0.35,0.67 L0.35,0.67 C0.374815169,0.426547341 0.575441559,0.238726891 0.82,0.23 L0.91,0.23 C1.48,0.39 2.91,0.69 2.91,0.69 L2.91,0.69 C2.98,0.69 4.12,0.8 4.82,0.8 L5.13,0.8 C5.34477962,0.810431463 5.51500847,0.985025149 5.52,1.2 L5.52,1.2 C5.52,1.38 5.37,1.56 5.03,1.6 L5.03,1.6 C4.87681752,1.6096189 4.72318248,1.6096189 4.57,1.6 L4.57,1.6 C3.83,1.6 2.81,1.48 2.81,1.48 L2.83,1.51 Z M0.42,0.67 C0.42,0.78 0.49,0.9 0.73,0.99 L0.73,0.99 C1.42598572,1.18652276 2.13419457,1.33685011 2.85,1.44 L2.85,1.44 C2.85,1.44 3.85,1.56 4.6,1.56 L4.6,1.56 C4.74980572,1.57079671 4.90019428,1.57079671 5.05,1.56 L5.05,1.56 C5.38,1.56 5.47,1.37 5.48,1.23 L5.48,1.23 C5.4701206,1.05752667 5.33247333,0.919879402 5.16,0.91 L4.85,0.91 C4.12,0.91 2.93,0.8 2.93,0.8 L2.93,0.8 L2.93,0.8 C2.93,0.8 1.47,0.49 0.93,0.33 L0.86,0.33 C0.659424731,0.34685312 0.497379081,0.500588736 0.47,0.7 L0.42,0.67 Z" id="Shape"></path>
                            </g>
                        </g>
                        <path d="M24.47,36.37 C24.496874,36.638983 24.574943,36.9003444 24.7,37.14 C24.7,37.14 25.13,36.69 25.15,36.43 C25.2004589,36.2176799 25.0714215,36.0041007 24.86,35.95 C24.67,35.94 24.5,36.13 24.47,36.37 Z" id="Shape" fill="#FFFFFF"></path>
                        <path d="M24.67,37.16 C24.5489097,36.9250608 24.4677997,36.6715922 24.43,36.41 L24.43,36.41 L24.43,36.41 C24.4285748,36.1797569 24.6011777,35.9855786 24.83,35.96 L24.83,35.96 C25.0423402,36.0050226 25.1853931,36.2044296 25.16,36.42 L25.16,36.42 C25.16,36.42 25.16,36.42 25.16,36.48 L25.16,36.48 C25.16,36.76 24.7,37.21 24.69,37.21 L24.69,37.21 L24.69,37.21 L24.69,37.21 L24.67,37.16 Z M24.51,36.41 C24.5391236,36.6428637 24.6067093,36.8692758 24.71,37.08 L24.71,37.08 C24.8924197,36.8996974 25.0324659,36.6810887 25.12,36.44 L25.12,36.44 C25.1211775,36.4200173 25.1211775,36.3999827 25.12,36.38 L25.12,36.38 C25.1397145,36.2031067 25.0235301,36.0395879 24.85,36 L24.85,36 C24.7,36 24.55,36.16 24.53,36.38 L24.53,36.38 L24.51,36.41 Z" id="Shape" fill="#FCD116"></path>
                        <path d="M27.11,36.58 C27.11,36.83 27.36,36.7 27.55,37.22 C27.7462845,37.0274756 27.8359266,36.7510794 27.79,36.48 C27.79,36.23 27.57,36.05 27.38,36.08 C27.2776119,36.1100788 27.1914878,36.1798235 27.1407824,36.2737225 C27.090077,36.3676214 27.0789946,36.4778887 27.11,36.58 L27.11,36.58 Z" id="Shape" fill="#FFFFFF"></path>
                        <path d="M27.51,37.23 C27.33,36.72 27.12,36.87 27.07,36.58 L27.07,36.58 C27.0673478,36.5500586 27.0673478,36.5199414 27.07,36.49 L27.07,36.49 C27.0491236,36.2865423 27.1813851,36.0988161 27.38,36.05 L27.38,36.05 C27.6048992,36.0785877 27.7773389,36.263645 27.79,36.49 L27.79,36.49 L27.79,36.64 L27.79,36.64 C27.782171,36.8685831 27.6894784,37.0860543 27.53,37.25 L27.53,37.25 L27.53,37.3 L27.53,37.24 L27.51,37.23 Z M27.51,37.14 C27.6360559,36.9957681 27.706917,36.8115292 27.71,36.62 L27.71,36.62 C27.7123182,36.5733621 27.7123182,36.5266379 27.71,36.48 L27.71,36.48 C27.6979434,36.2919871 27.5563257,36.1378737 27.37,36.11 L27.37,36.11 C27.2060045,36.153657 27.0993144,36.3115584 27.12,36.48 L27.12,36.48 C27.1178632,36.5066239 27.1178632,36.5333761 27.12,36.56 L27.12,36.56 C27.12,36.76 27.34,36.67 27.54,37.14 L27.51,37.14 Z" id="Shape" fill="#FCD116"></path>
                        <path d="M22.65,36 C22.52,36.21 22.38,36 22,36.43 C21.8920909,36.179095 21.9145273,35.891161 22.06,35.66 C22.1473556,35.454651 22.3829014,35.3568773 22.59,35.44 C22.7507361,35.5836148 22.7766623,35.8255925 22.65,36 L22.65,36 Z" id="Shape" fill="#FFFFFF"></path>
                        <path d="M22,36.48 C21.9575725,36.3576052 21.9339703,36.229479 21.93,36.1 L21.93,36.1 C21.931594,35.950341 21.9767692,35.8043905 22.06,35.68 L22.06,35.68 C22.140757,35.5190698 22.3003886,35.4126487 22.48,35.4 L22.48,35.4 C22.5291933,35.3872983 22.5808067,35.3872983 22.63,35.4 L22.63,35.4 C22.7363131,35.4707401 22.7971958,35.5925055 22.79,35.72 L22.79,35.72 C22.7892092,35.8251666 22.7616793,35.9284037 22.71,36.02 L22.71,36.02 C22.55,36.26 22.42,36.02 22.06,36.45 L22.06,36.45 L22.06,36.45 L22.06,36.39 L22,36.48 Z M22.12,35.71 C22.0432289,35.8257084 22.0015551,35.9611482 22,36.1 L22,36.1 C21.9859117,36.1995038 21.9859117,36.3004962 22,36.4 L22,36.4 C22.35,36.04 22.51,36.2 22.6,36.03 L22.6,36.03 C22.645756,35.9509823 22.6698987,35.8613094 22.67,35.77 L22.67,35.77 C22.6785622,35.6682511 22.6329834,35.5694971 22.55,35.51 L22.55,35.51 C22.5106453,35.4998387 22.4693547,35.4998387 22.43,35.51 L22.43,35.51 C22.2768905,35.5232777 22.1411446,35.613775 22.07,35.75 L22.12,35.71 Z" id="Shape" fill="#FCD116"></path>
                        <polygon id="Shape" fill="#FCD116" points="26.21 36.28 26.21 36.2 26.7 36.2 26.7 36.28 26.21 36.28"></polygon>
                        <polygon id="Shape" fill="#FCD116" points="25.46 36.23 25.46 36.16 25.92 36.17 25.92 36.25 25.46 36.23"></polygon>
                        <polygon id="Shape" fill="#FCD116" points="23.82 35.97 23.84 35.89 24.29 35.99 24.27 36.06 23.82 35.97"></polygon>
                        <polygon id="Shape" fill="#FCD116" points="23.11 35.8 23.13 35.73 23.58 35.82 23.56 35.9 23.11 35.8"></polygon>
                        <g id="_Path_9" transform="translate(24.000000, 23.000000)">
                            <g id="_Path_10">
                                <path d="M4,0.59 C5.00394364,1.34250553 6.25004493,1.69853447 7.5,1.59 C7.4,4.81 6.5,7.02 4,8.68 C1.51,7.02 0.59,4.82 0.49,1.59 C1.74338803,1.70200938 2.99383848,1.34575569 4,0.59 L4,0.59 Z" id="Shape" fill="#FFFFFF"></path>
                                <path d="M0.52,1.56 L0.88,1.56 C2.00018918,1.58980428 3.09711013,1.23709658 3.99,0.56 L3.99,0.56 L3.99,0.56 L3.99,0.56 C4.88817306,1.23428282 5.98720528,1.58653674 7.11,1.56 L7.11,1.56 C7.24295394,1.54577524 7.37704606,1.54577524 7.51,1.56 L7.51,1.56 C7.41,4.79 6.51,7.01 3.95,8.68 L3.95,8.68 C1.45,7.02 0.52,4.79 0.47,1.53 L0.52,1.56 Z M4,8.65 C6.48,7 7.39,4.81 7.53,1.65 L7.16,1.65 C6.03096032,1.67715407 4.92540282,1.32506569 4.02,0.65 L4.02,0.65 C3.11640801,1.32858373 2.0095968,1.68107138 0.88,1.65 L0.88,1.65 C0.771327683,1.67416983 0.658672317,1.67416983 0.55,1.65 L0.55,1.65 C0.65,4.86 1.55,7.05 4,8.71 L4,8.65 Z" id="Shape" fill="#FCD116"></path>
                            </g>
                        </g>
                        <path d="M29.08,24.53 C28.7129454,24.4017367 28.3735969,24.2049146 28.08,23.95 C27.7475786,24.2047447 27.3761059,24.4039891 26.98,24.54 C26.2968077,24.7670128 25.5797597,24.8752464 24.86,24.86 C24.8964455,26.8925056 25.6550374,28.8457025 27,30.37 C27.3256451,30.7458421 27.6949149,31.081542 28.1,31.37 C28.4631508,31.1199479 28.7984053,30.831629 29.1,30.51 C30.4927448,28.9846294 31.2509814,26.9853169 31.22,24.92 C30.4893347,24.9162946 29.7649981,24.7842893 29.08,24.53 Z" id="Shape" fill="#FCD116"></path>
                        <path d="M26.93,30.4 C25.5768768,28.8573919 24.8367754,26.8719277 24.85,24.82 L24.85,24.82 C25.5664778,24.8350905 26.280214,24.7268461 26.96,24.5 L26.96,24.5 C27.3352076,24.358546 27.686083,24.1594917 28,23.91 L28,23.91 L28,23.91 L28,23.91 C28.294135,24.1617465 28.6335108,24.3551907 29,24.48 L29,24.48 L29,24.48 L29,24.48 C28.6350404,24.3564736 28.2960246,24.1666247 28,23.92 L28,23.92 C27.6724659,24.1684972 27.308056,24.3641988 26.92,24.5 L26.92,24.5 C26.2499002,24.7356454 25.5384958,24.8309532 24.83,24.78 L24.83,24.78 C24.858387,26.8345299 25.6291598,28.8094132 27,30.34 L27,30.34 C27.3075443,30.6796843 27.6419598,30.9940348 28,31.28 L28,31.28 C28.3639242,31.0309529 28.6992832,30.7425441 29,30.42 L29,30.42 C30.3750354,28.9126621 31.1443367,26.9502315 31.16,24.91 L31.16,24.91 C30.4323838,24.9211109 29.7083434,24.8060764 29.02,24.57 L29.02,24.57 L29.02,24.57 L29.02,24.57 C29.714539,24.7998939 30.4387361,24.9278915 31.17,24.95 L31.17,24.95 C31.1991567,27.0276365 30.4336613,29.0379561 29.03,30.57 L29.03,30.57 C28.7127,30.909341 28.3491181,31.2022264 27.95,31.44 L27.95,31.44 C27.5428499,31.1503687 27.1703978,30.8148263 26.84,30.44 L26.93,30.4 Z" id="Shape" fill="#FCD116"></path>
                        <path d="M28.06,23.95 C27.7275786,24.2047447 27.3561059,24.4039891 26.96,24.54 L26.96,30.37 C27.2856451,30.7458421 27.6549149,31.081542 28.06,31.37 C28.4231508,31.1199479 28.7584053,30.831629 29.06,30.51 L29.06,24.53 C28.6929454,24.4017367 28.3535969,24.2049146 28.06,23.95 L28.06,23.95 Z" id="Shape" fill="#FFFFFF"></path>
                        <path d="M24.84,24.86 C24.8819833,26.8950637 25.6477846,28.8485663 27,30.37 L27,24.54 C26.3041148,24.7715804 25.5731376,24.8798734 24.84,24.86 L24.84,24.86 Z" id="Shape" fill="#FCD116"></path>
                        <path d="M29.08,24.53 L29.08,30.46 C30.4727448,28.9346294 31.2309814,26.9353169 31.2,24.87 C30.4789967,24.8800079 29.7617141,24.764972 29.08,24.53 Z" id="Shape" fill="#FCD116"></path>
                    </g>
                </g>
            </g>
        </g>
    </g>
</svg>