<svg xmlns="http://www.w3.org/2000/svg" xmlns:xlink="http://www.w3.org/1999/xlink" width="64px" height="64px" viewBox="0 0 64 64" version="1.1" class="replaced-svg">
    <!-- Generator: Sketch 49.3 (51167) - http://www.bohemiancoding.com/sketch -->
    <title>Flag/flag_saudi_arabia</title>
    <desc>Created with Sketch.</desc>
    <defs></defs>
    <g id="Flag/flag_saudi_arabia" stroke="none" stroke-width="1" fill="none" fill-rule="evenodd">
        <g id="Asset-172" transform="translate(4.000000, 4.000000)" fill-rule="nonzero">
            <g id="Layer_2">
                <g>
                    <g id="Layer_1-2">
                        <circle id="Oval" fill="#000000" cx="28" cy="28" r="28"></circle>
                        <circle id="Oval" fill="#009531" cx="28" cy="28" r="27.63"></circle>
                        <path d="M25.78,19.45 L25.78,20.09 L25.83,20.09 C25.8687165,19.9825648 25.8988117,19.8722156 25.92,19.76 C25.9627959,19.4253108 25.9390065,19.085463 25.85,18.76 C25.8229315,18.6436036 25.7599645,18.5386588 25.67,18.46 C25.58,18.46 25.53,18.54 25.48,18.6 C25.43,18.66 25.48,18.77 25.48,18.84 C25.6292994,19.0151375 25.7324282,19.2248326 25.78,19.45 L25.78,19.45 Z M28.92,19.24 C28.98,19.4 29.18,19.4 29.26,19.54 C29.75,20.19 30.26,20.84 30.68,21.54 C30.68,21.82 30.76,22.1 30.79,22.38 L30.79,22.38 C30.79,22.53 30.79,22.67 30.85,22.82 C30.97,23.82 31.11,24.73 31.17,25.7 C31.2106792,26.1182584 31.183666,26.5403397 31.09,26.95 C31.0619718,27.0919631 31.0619718,27.2380369 31.09,27.38 C31.2,27.38 31.24,27.26 31.28,27.18 C31.5164904,26.5689084 31.6188032,25.9141063 31.58,25.26 L31.58,25.26 C31.58,24.65 31.45,24.05 31.42,23.44 C31.42,23.13 31.37,22.82 31.36,22.51 C32.0006156,23.4735933 32.5817003,24.4754635 33.1,25.51 C33.1936446,25.7474708 33.3039181,25.9780427 33.43,26.2 L33.51,26.2 C33.4913202,25.7827827 33.3857339,25.3740617 33.2,25 C32.9324322,24.3822283 32.6216624,23.7840801 32.27,23.21 C31.96,22.68 31.63,22.21 31.27,21.65 C31.2080347,21.5086093 31.1839116,21.3535324 31.2,21.2 L31.2,20.2 C31.2533948,20.2583979 31.3312841,20.28807 31.41,20.28 L31.41,20.2 C31.4096752,20.0529971 31.3825657,19.9072837 31.33,19.77 C31.21,19.39 31.04,19.04 30.89,18.67 C30.8673719,18.5851385 30.8034311,18.5174364 30.72,18.49 C30.61,18.49 30.54,18.58 30.51,18.66 C30.45565,18.7886005 30.4154145,18.9227188 30.39,19.06 C30.3827226,19.1878658 30.4257968,19.3134989 30.51,19.41 C30.51,19.81 30.6,20.2 30.63,20.6 L30.63,20.54 C30.4,20.22 30.19,19.9 29.97,19.54 C30.0896323,19.5827297 30.2203677,19.5827297 30.34,19.54 C30.34,19.39 30.24,19.29 30.16,19.18 C29.86,18.86 29.52,18.58 29.16,18.29 C29.091981,18.222034 28.9929483,18.1953714 28.9,18.22 L28.9,18.29 L28.9,18.83 C28.8885783,18.966951 28.8953032,19.1048109 28.92,19.24 L28.92,19.24 Z M32.02,18.94 C32.119353,19.0362093 32.1976694,19.1519814 32.25,19.28 C32.35,19.52 32.25,19.76 32.25,20 C32.36,20 32.4,19.86 32.44,19.78 C32.5754258,19.3881531 32.5315353,18.9565627 32.32,18.6 C32.26,18.49 32.19,18.35 32.04,18.37 C31.924924,18.4744043 31.8625654,18.6247986 31.87,18.78 C31.9,18.85 32,18.89 32,18.94 L32.02,18.94 Z M23.61,21.94 C23.79,21.94 23.92,21.78 23.99,21.63 C24.15,21.27 24.27,20.9 24.39,20.52 C24.4303272,20.3750473 24.4982342,20.2392334 24.59,20.12 L24.65,20.12 C24.6542134,20.1999445 24.6542134,20.2800555 24.65,20.36 C24.5867075,20.7239353 24.5867075,21.0960647 24.65,21.46 C24.6971064,21.7189807 24.8444264,21.9489436 25.06,22.1 C25.301553,22.224566 25.588447,22.224566 25.83,22.1 C26.2269462,21.9346033 26.5551931,21.6381223 26.76,21.26 C26.9594999,21.562251 27.2556383,21.7878801 27.6,21.9 C27.8678472,21.9409813 28.1335294,21.8140883 28.27,21.58 C28.4769815,21.2343719 28.5648091,20.8303652 28.52,20.43 C28.4859788,20.1532501 28.4325133,19.8792392 28.36,19.61 C28.36,19.48 28.26,19.35 28.23,19.21 C28.34,19.21 28.41,19.32 28.5,19.38 C28.5556302,19.3953274 28.6143698,19.3953274 28.67,19.38 C28.6908701,19.2912099 28.6908701,19.1987901 28.67,19.11 C28.5883761,18.8439643 28.4404002,18.6030732 28.24,18.41 C28.15,18.33 28.06,18.23 27.93,18.25 C27.8725613,18.3356615 27.8223864,18.4259761 27.78,18.52 C27.73,18.64 27.57,18.71 27.57,18.87 C27.6491983,19.0428821 27.7192942,19.2197907 27.78,19.4 C27.8910352,19.7257899 27.9746593,20.0602865 28.03,20.4 C28.0952419,20.6491328 28.0952419,20.9108672 28.03,21.16 C27.9793608,21.2855168 27.855231,21.3656005 27.72,21.36 C27.5632749,21.3280801 27.4282078,21.2295177 27.35,21.09 C27.1602949,20.7543046 27.0411917,20.3833831 27,20 C26.9946092,19.631328 26.9611794,19.2636003 26.9,18.9 C26.8610084,18.6219043 26.7693737,18.3537878 26.63,18.11 L26.56,18.11 C26.46,18.25 26.41,18.42 26.33,18.57 C26.25,18.72 26.33,18.85 26.38,18.99 C26.4915173,19.4418026 26.5518964,19.9047087 26.56,20.37 C26.5706741,20.6128595 26.5079497,20.8533033 26.38,21.06 C26.2388707,21.245669 26.0482416,21.3877743 25.83,21.47 C25.6625624,21.550758 25.4674376,21.550758 25.3,21.47 C25.1263137,21.374829 25.0131962,21.1976115 25,21 C24.9723799,20.5161536 24.9891164,20.0307945 25.05,19.55 C25.0765152,19.3978129 25.0765152,19.2421871 25.05,19.09 C25.0214604,19.0096529 24.9691421,18.9398952 24.9,18.89 C24.8,18.89 24.71,18.89 24.66,18.99 C24.4678634,19.2505014 24.3004702,19.5283742 24.16,19.82 C23.953591,20.2221242 23.7797023,20.6401258 23.64,21.07 C23.64,21.19 23.5,21.34 23.35,21.29 C23.1641503,21.177953 23.028195,20.9990646 22.97,20.79 L23,20.56 C22.9608855,20.2512338 22.9608855,19.9387662 23,19.63 C23,19.44 23.09,19.26 23.09,19.07 L23,19.07 C22.8527005,19.3851574 22.7613391,19.7235333 22.73,20.07 C22.6647399,20.6246184 22.8230748,21.1823891 23.17,21.62 C23.2645747,21.8006083 23.4261031,21.9370101 23.62,22 L23.61,21.94 Z M29.21,28 C29.2692448,28.112585 29.3949509,28.1734105 29.52,28.15 C29.8311465,28.1077547 30.1195158,27.96357 30.34,27.74 C30.42,27.66 30.55,27.61 30.57,27.49 C30.510968,27.474758 30.449032,27.474758 30.39,27.49 C30.1304945,27.6291778 29.8551815,27.736617 29.57,27.81 C29.57,27.81 29.51,27.74 29.51,27.7 C29.51,27.48 29.64,27.28 29.61,27.06 C29.4277899,27.0649081 29.2536031,27.1360047 29.12,27.26 C29.03,27.32 28.91,27.36 28.88,27.47 C29.02,27.47 29.14,27.4 29.28,27.39 C29.29,27.64 29.14,27.84 29.21,28 Z M22.94,23.49 C23.06,23.78 23.21,24.04 23.35,24.32 C23.4337551,24.4796178 23.4652378,24.661518 23.44,24.84 C23.3859396,25.0591732 23.2633203,25.2553642 23.09,25.4 C22.7878786,25.6709983 22.4707079,25.9247349 22.14,26.16 L22.14,25.77 C22.168345,25.6011815 22.168345,25.4288185 22.14,25.26 L22.08,25.26 C21.918799,25.5524832 21.7881112,25.8607723 21.69,26.18 L21.59,26.56 C21.59,26.56 21.59,26.61 21.53,26.63 C20.9675028,26.9929028 20.3867378,27.3266758 19.79,27.63 C19.54,27.77 19.28,27.89 19.03,28.03 L19.03,28.12 C19.0925019,28.1345135 19.1574981,28.1345135 19.22,28.12 C20.0234269,27.8997624 20.8090094,27.6189584 21.57,27.28 C21.5835928,27.5732813 21.6924244,27.8541371 21.88,28.08 C22.1320325,28.3001376 22.4712162,28.3923071 22.8,28.33 C23.3148537,28.2162877 23.7825073,27.9475614 24.14,27.56 C24.5109882,27.2001922 24.8459143,26.8049794 25.14,26.38 C25.2911209,26.7972671 25.5416883,27.171402 25.87,27.47 C26.4365922,27.934933 27.137907,28.2049392 27.87,28.24 C28.01,28.24 28.2,28.24 28.28,28.12 C28.3537462,27.9527058 28.3944922,27.7727444 28.4,27.59 C28.2585805,27.5009815 28.103018,27.4367274 27.94,27.4 C27.7215374,27.328429 27.5298169,27.1924817 27.39,27.01 C27.2963999,26.8930935 27.2963999,26.7269065 27.39,26.61 C27.5540041,26.4571603 27.7532473,26.3472329 27.97,26.29 C28.5973161,26.0520021 29.2427214,25.8647343 29.9,25.73 C30.08,25.73 30.29,25.73 30.45,25.59 C30.5588273,25.4639404 30.6344487,25.3126976 30.67,25.15 C30.6950998,25.0583542 30.6950998,24.9616458 30.67,24.87 C30.4872071,24.8500924 30.3027929,24.8500924 30.12,24.87 C29.37,24.87 28.62,24.92 27.87,24.92 L26.95,24.92 C27.442972,24.6652587 27.9544163,24.4479784 28.48,24.27 C28.58,24.21 28.69,24.27 28.79,24.27 C28.7924765,24.2233662 28.7924765,24.1766338 28.79,24.13 C29.0809599,24.0396185 29.349975,23.8897873 29.58,23.69 C29.765533,23.5292851 29.871486,23.2954579 29.87,23.05 C29.8478705,22.7948175 29.6970417,22.5685744 29.47,22.45 C29.2190953,22.2562419 28.916288,22.1413839 28.6,22.12 C28.4227288,22.123851 28.2569574,22.2085786 28.15,22.35 C27.9868949,22.5519371 27.8707563,22.7876302 27.81,23.04 C27.8075399,23.242845 27.86683,23.4416412 27.98,23.61 C27.54,23.74 27.1,23.9 26.68,24.06 C26.4674136,24.131692 26.2629559,24.2255414 26.07,24.34 C25.9090781,24.4717839 25.7993954,24.6557677 25.76,24.86 C25.7009258,24.9881045 25.6767762,25.129552 25.69,25.27 C25.77,25.35 25.88,25.34 25.98,25.35 L26.86,25.35 C27.141243,25.3526442 27.4169522,25.4284642 27.66,25.57 C27.7026206,25.5925329 27.7374671,25.6273794 27.76,25.67 C27.3702445,25.7936705 27.0484419,26.0720839 26.87,26.44 C26.7998901,26.6475731 26.7998901,26.8724269 26.87,27.08 C26.4602784,26.9812126 26.1030606,26.7311602 25.87,26.38 C25.6623622,25.9151612 25.5371628,25.4177475 25.5,24.91 C25.5,24.58 25.38,24.26 25.32,23.91 L25.32,23.91 C25.1644,23.3103666 24.9500287,22.7275447 24.68,22.17 C24.6417579,22.0483542 24.5843714,21.9335811 24.51,21.83 C24.37,21.91 24.33,22.09 24.26,22.23 C24.167467,22.3904483 24.1422959,22.5810299 24.19,22.76 C24.37,23.25 24.53,23.76 24.68,24.24 L24.68,24.24 C24.73,24.44 24.8,24.64 24.86,24.85 L24.86,24.85 C24.86,25.02 24.95,25.18 24.99,25.35 C24.7377194,25.8665793 24.3995835,26.3365882 23.99,26.74 C23.6895849,27.0488924 23.3084407,27.2671841 22.89,27.37 C22.6834481,27.4199959 22.4653828,27.3800173 22.29,27.26 C22.1791895,27.2377313 22.0779302,27.1818641 22,27.1 C22.4367249,26.8620562 22.831876,26.5547165 23.17,26.19 C23.4649864,25.9184517 23.6824221,25.5733157 23.8,25.19 C23.8642406,24.8866976 23.8642406,24.5733024 23.8,24.27 L23.73,24.02 C23.6822215,23.8459305 23.6220684,23.6754966 23.55,23.51 L23.75,23.51 C23.7415209,23.3374402 23.6704133,23.1738928 23.55,23.05 C23.4384991,22.8908911 23.3111839,22.7434736 23.17,22.61 C23.1434234,22.5798649 23.1051801,22.5626013 23.065,22.5626013 C23.0248199,22.5626013 22.9865766,22.5798649 22.96,22.61 C22.8824409,22.7147764 22.8185904,22.8290353 22.77,22.95 C22.7025529,23.0610974 22.6711166,23.1903358 22.68,23.32 C22.74,23.43 22.85,23.48 22.94,23.53 L22.94,23.49 Z M28.4,23 C28.5873298,23.040017 28.7643665,23.1183217 28.92,23.23 C28.979457,23.2651993 29.0333749,23.3090076 29.08,23.36 C28.8655569,23.4492111 28.6402789,23.5097335 28.41,23.54 C28.41,23.39 28.41,23.23 28.34,23.07 L28.4,23 Z M27,23 L26.92,23 C26.8464977,22.9179885 26.7888549,22.8230474 26.75,22.72 C26.75,22.65 26.75,22.54 26.61,22.52 C26.571778,22.6394499 26.5548538,22.7646895 26.56,22.89 L26.5,23.07 L26.39,23.07 C26.3001418,22.9274068 26.2421522,22.7670826 26.22,22.6 L26.22,22.53 C26.135165,22.7741438 26.1569408,23.0427125 26.28,23.27 C26.3286122,23.3647708 26.4381322,23.4111061 26.54,23.38 C26.65,23.38 26.67,23.21 26.72,23.12 L26.79,23.12 C26.85,23.18 26.91,23.26 27.01,23.25 C27.1608052,23.2457213 27.2849741,23.1301157 27.3,22.98 C27.3295116,22.7581298 27.283736,22.5327731 27.17,22.34 C27.08,22.47 27.17,22.64 27.12,22.79 C27.07,22.94 27,23 27,23.07 L27,23 Z M41.05,20.21 C41.0391351,20.3631409 41.0391351,20.5168591 41.05,20.67 L41.11,20.67 C41.1991646,20.465356 41.2402165,20.2429913 41.23,20.02 C41.2516097,19.6362614 41.1723106,19.2535569 41,18.91 C40.86,18.91 40.81,19.06 40.76,19.16 C40.7113888,19.2398502 40.7113888,19.3401498 40.76,19.42 C40.9220083,19.6811256 41.0244405,19.9747643 41.06,20.28 L41.05,20.21 Z M37.89,25 C38.03,25 38.08,24.84 38.14,24.73 C38.2092743,24.4194417 38.1149666,24.0950231 37.89,23.87 C37.8415163,23.8049661 37.755523,23.7803966 37.68,23.81 C37.5745873,23.8732125 37.5100585,23.9870868 37.51,24.11 C37.6689669,24.1996209 37.8003791,24.3310331 37.89,24.49 C38,24.62 37.84,24.8 37.89,25 Z M36.37,21.74 L36.49,21.74 C36.55,21.74 36.57,21.67 36.6,21.63 C36.7593032,21.8147998 36.8876307,22.0241762 36.98,22.25 C37.0111099,22.3351165 37.0586822,22.4132709 37.12,22.48 C37.21,22.48 37.22,22.37 37.24,22.3 L37.24,21.36 C37.24,21.29 37.24,21.21 37.34,21.16 C37.44,21.11 37.53,21.25 37.64,21.23 C37.75,21.21 37.64,21.1 37.64,21.04 C37.5899757,20.9533776 37.5465204,20.8631243 37.51,20.77 L37.42,20.77 C37.2669772,20.839013 37.1505965,20.9699413 37.1,21.13 C37.0756481,21.3359493 37.0756481,21.5440507 37.1,21.75 C37.1245566,21.8451071 37.1245566,21.9448929 37.1,22.04 C37.019634,21.9225905 36.955708,21.7947385 36.91,21.66 C36.8305761,21.4713103 36.7226521,21.2959338 36.59,21.14 L36.42,21.14 C36.3705275,21.1940174 36.3484317,21.2676703 36.36,21.34 C36.3829254,21.4353074 36.3829254,21.5346926 36.36,21.63 C36.3617222,21.6566389 36.3617222,21.6833611 36.36,21.71 L36.37,21.74 Z M32.43,20.57 C32.3824149,20.6898208 32.3456027,20.8136439 32.32,20.94 C32.32,20.99 32.26,20.99 32.22,20.94 C32.174571,20.8456702 32.1345072,20.7488492 32.1,20.65 L32,20.65 C31.9428248,20.8348407 31.9683472,21.0353738 32.07,21.2 C32.22,21.2 32.31,21.1 32.42,21.03 L32.67,21.18 C32.74,21.18 32.81,21.18 32.87,21.11 L32.87,21.01 C32.9098727,20.8153543 32.9098727,20.6146457 32.87,20.42 L32.81,20.42 C32.8074711,20.4532854 32.8074711,20.4867146 32.81,20.52 C32.81,20.65 32.81,20.84 32.62,20.89 C32.5415824,20.7925032 32.4929704,20.6744456 32.48,20.55 L32.43,20.57 Z M20.88,26 L21,26 C21.1077431,25.8555595 21.1797108,25.687635 21.21,25.51 C21.2480963,25.3320157 21.2480963,25.1479843 21.21,24.97 C21.21,24.78 20.85,24.66 20.76,24.87 C20.6834848,24.9887412 20.6834848,25.1412588 20.76,25.26 C20.83,25.34 20.96,25.26 21.05,25.26 C21.0670573,25.3994804 21.0670573,25.5405196 21.05,25.68 C20.9822879,25.7804217 20.9253088,25.8876766 20.88,26 L20.88,26 Z M33.25,19.43 C33.32,19.9 33.38,20.37 33.44,20.84 C33.52,21.56 33.6,22.28 33.65,23 C33.7,23.72 33.72,24.44 33.77,25.15 C33.7896241,25.4296562 33.7896241,25.7103438 33.77,25.99 C33.7309252,26.3905218 33.5542292,26.7651171 33.27,27.05 C32.9400291,27.4516071 32.5402899,27.7903692 32.09,28.05 C31.840309,28.129825 31.5964007,28.22672 31.36,28.34 L31.36,28.4 C31.5316705,28.4339545 31.7083295,28.4339545 31.88,28.4 C32.1965602,28.401509 32.5099363,28.33679 32.8,28.21 C33.120576,27.981578 33.4039208,27.7049796 33.64,27.39 C33.953986,27.0067845 34.1394112,26.5344751 34.17,26.04 C34.2092407,25.5641409 34.2092407,25.0858591 34.17,24.61 C34.17,23.84 34.1,23.07 34.01,22.3 C33.8937908,21.495268 33.8369706,20.6830738 33.84,19.87 C33.9083996,19.9300498 34.0003626,19.9557995 34.09,19.94 C34.1098947,19.8612369 34.1098947,19.7787631 34.09,19.7 C34.01,19.48 33.97,19.25 33.9,19.02 L33.85,18.82 L33.85,18.82 C33.8151109,18.6782692 33.7648113,18.5407836 33.7,18.41 C33.65,18.41 33.59,18.41 33.56,18.46 C33.53,18.51 33.33,18.7 33.21,18.83 C33.1324273,18.9443853 33.1103962,19.0875875 33.15,19.22 C33.2001584,19.2955763 33.2342,19.3806804 33.25,19.47 L33.25,19.43 Z M37.75,22.87 C37.4,23.2 36.98,23.45 36.62,23.78 C36.5529944,23.840766 36.519472,23.9301589 36.53,24.02 C36.6581337,23.9996923 36.7768737,23.9403223 36.87,23.85 C37.151212,23.63096 37.4487441,23.4337196 37.76,23.26 C37.8776486,23.208367 37.985813,23.137384 38.08,23.05 C38.119167,22.9161395 38.119167,22.7738605 38.08,22.64 C37.93,22.68 37.84,22.82 37.75,22.91 L37.75,22.87 Z M39.18,22.97 L39.18,22.16 L40.18,23.54 C40.2220366,23.6247135 40.2491023,23.7160602 40.26,23.81 C40.26,24.13 40.35,24.45 40.39,24.81 C40.43,25.17 40.39,25.58 40.39,25.97 C40.39,26.04 40.39,26.17 40.47,26.16 C40.54963,26.0064565 40.6036734,25.8409487 40.63,25.67 L40.63,25.07 C40.63,24.87 40.63,24.45 40.58,24.14 C40.93,24.6 41.27,25.08 41.58,25.57 C41.69,25.74 41.77,25.92 41.89,26.08 L41.95,26.08 C41.985718,25.8379774 41.985718,25.5920226 41.95,25.35 C41.7579448,24.8414146 41.4880613,24.365745 41.15,23.94 C40.95,23.64 40.73,23.35 40.54,23.04 C40.54,22.69 40.47,22.33 40.45,21.98 C40.4,21.47 40.31,20.42 40.31,20.42 L40.31,19.96 L40.42,20.02 L40.51,20.02 C40.5421476,19.9328707 40.5421476,19.8371293 40.51,19.75 C40.42,19.43 40.34,19.11 40.25,18.75 C40.2129025,18.5761037 40.1451819,18.4101884 40.05,18.26 C39.9845287,18.2612505 39.9226945,18.2903489 39.88,18.34 C39.7668935,18.4785456 39.6758238,18.6337015 39.61,18.8 C39.55,18.92 39.61,19.04 39.61,19.16 C39.61,19.81 39.7,20.45 39.78,21.1 C39.84,21.49 39.91,21.89 39.97,22.29 L39.09,21.08 C39.09,20.65 39.03,20.22 39.01,19.8 C39.0726649,19.8334917 39.1401268,19.8571034 39.21,19.87 C39.2211894,19.8038028 39.2211894,19.7361972 39.21,19.67 C39.08,19.26 38.93,18.86 38.78,18.46 C38.78,18.4 38.72,18.3 38.64,18.33 C38.4858943,18.4756632 38.3780794,18.6634698 38.33,18.87 C38.2988952,19.0388435 38.3309255,19.2132302 38.42,19.36 C38.42,19.63 38.48,19.89 38.49,20.16 C38.32,19.95 38.19,19.73 38.03,19.51 L38.19,19.51 L38.24,19.43 C38.2290858,19.370146 38.2013347,19.3146438 38.16,19.27 C37.8953442,19.0421922 37.6448761,18.7984034 37.41,18.54 C37.34,18.45 37.23,18.35 37.11,18.41 L37.11,18.55 C37.1325464,18.7560517 37.1325464,18.9639483 37.11,19.17 C37.11,19.41 37.25,19.59 37.39,19.76 C37.81,20.26 38.2,20.76 38.61,21.31 C38.61,21.48 38.61,21.66 38.66,21.84 C38.71,22.02 38.66,22.36 38.71,22.63 L38.71,22.63 C38.7951129,23.5674492 38.8284968,24.5088767 38.81,25.45 C38.8027706,25.6357657 38.7439007,25.8158384 38.64,25.97 C38.5494199,26.0916532 38.4066715,26.1633382 38.255,26.1633382 C38.1033285,26.1633382 37.9605801,26.0916532 37.87,25.97 C37.66,25.78 37.55,25.5 37.33,25.33 C37.240526,25.2543131 37.109474,25.2543131 37.02,25.33 C36.8757283,25.4740313 36.7543257,25.6392737 36.66,25.82 C36.4153921,26.228337 36.1917683,26.6488832 35.99,27.08 C35.9390432,27.2141298 35.8567557,27.3341324 35.75,27.43 C35.6670128,27.5027281 35.5429872,27.5027281 35.46,27.43 C35.3669151,27.3195354 35.2925937,27.1945404 35.24,27.06 C35.309736,27.1268727 35.4034256,27.1629071 35.5,27.16 C35.6543507,27.1339027 35.7855773,27.0326707 35.85,26.89 C36.0282303,26.5580593 36.1403047,26.1946665 36.18,25.82 C36.2061454,25.275082 36.1522386,24.7292752 36.02,24.2 C36.02,23.86 35.93,23.51 35.91,23.2 L35.91,23.2 C35.86,22.67 35.79,22.14 35.72,21.6 C35.65,21.06 35.62,20.8 35.61,20.4 C35.7672766,20.4249727 35.9243845,20.3542741 36.01,20.22 C36.0739007,20.065565 36.0469464,19.8884365 35.94,19.76 C35.7643449,19.4686947 35.6265663,19.1561725 35.53,18.83 C35.4808266,18.6407699 35.4138616,18.4566162 35.33,18.28 C35.2708232,18.1724937 35.1621937,18.1013226 35.04,18.09 C34.9133281,18.0866431 34.7933176,18.1466484 34.72,18.25 C34.5575265,18.4357639 34.4440855,18.6592083 34.39,18.9 C34.3475113,19.2366095 34.3816973,19.5784696 34.49,19.9 C34.5579182,20.1895555 34.604708,20.4836631 34.63,20.78 C34.73,21.53 34.83,22.28 34.93,23.02 C34.99,23.5 35.05,24.02 35.12,24.46 C35.2466465,25.1187642 35.3003037,25.7894798 35.28,26.46 C35.28,26.6 35.21,26.75 35.18,26.88 C35.18,26.68 35.11,26.47 35.1,26.27 C35.1196383,26.0270629 35.1196383,25.7829371 35.1,25.54 L35.04,25.54 C34.9626646,25.7404361 34.9057106,25.9481507 34.87,26.16 C34.7502824,26.5866171 34.7331495,27.0354986 34.82,27.47 C34.9400363,27.7335239 35.1347422,27.956045 35.38,28.11 C35.4892595,28.2149503 35.6296191,28.2816211 35.78,28.3 C35.8884443,28.2870048 35.9846055,28.2241302 36.04,28.13 C36.2421787,27.771395 36.4064006,27.3926792 36.53,27 C36.6245179,26.7578172 36.7560868,26.5317885 36.92,26.33 C36.92,26.33 37.01,26.22 37.09,26.23 C37.1835695,26.3674704 37.2871859,26.4978265 37.4,26.62 C37.6406389,26.8640322 37.9673292,27.0040423 38.31,27.01 C38.6059597,27.0017279 38.878919,26.848422 39.04,26.6 C39.2446996,26.2344358 39.3417728,25.8184078 39.32,25.4 L39.32,25.4 C39.28,24.57 39.23,23.79 39.18,23 L39.18,22.97 Z M18.87,27.35 C19.1718399,27.0842243 19.3905879,26.7370053 19.5,26.35 C19.6278401,25.8234757 19.665039,25.2790191 19.61,24.74 L19.61,24.05 C19.5991598,24.0005875 19.5991598,23.9494125 19.61,23.9 L19.68,23.9 C19.753025,24.0983075 19.9388006,24.2326983 20.15,24.24 C20.3652683,24.2538553 20.5792459,24.19773 20.76,24.08 C20.8488503,24.0131367 20.929418,23.9359259 21,23.85 C21.0260246,23.8281587 21.0639754,23.8281587 21.09,23.85 C21.1453315,23.9328897 21.2127431,24.0070425 21.29,24.07 C21.4525703,24.1660387 21.6450696,24.198122 21.83,24.16 C21.9680885,24.1307523 22.0814225,24.0325296 22.13,23.9 C22.2048714,23.664323 22.2353873,23.4168048 22.22,23.17 C22.2160636,23.0126985 22.1856373,22.8571861 22.13,22.71 C22.0077488,22.7283763 21.8988679,22.7973342 21.83,22.9 L21.83,23.06 C21.8608996,23.181398 21.8608996,23.308602 21.83,23.43 C21.8316822,23.562422 21.7463361,23.6802809 21.62,23.72 C21.4914151,23.7118221 21.3770045,23.6355484 21.32,23.52 C21.2199222,23.3034028 21.1654606,23.0685374 21.16,22.83 L21.09,22.83 C21.0250924,23.0737167 20.9239656,23.3063085 20.79,23.52 C20.6953954,23.6698877 20.5436839,23.7746409 20.37,23.81 C20.2419489,23.8177818 20.1240008,23.7405055 20.08,23.62 C20.0124595,23.4242049 19.9885677,23.2160051 20.01,23.01 C20.01,22.93 19.94,22.83 19.86,22.89 C19.78,22.95 19.6,23.14 19.45,23.23 C19.45,22.77 19.39,22.32 19.36,21.86 C19.33,21.4 19.27,20.77 19.24,20.22 C19.29,20.22 19.35,20.33 19.42,20.32 C19.49,20.31 19.52,20.26 19.55,20.21 C19.5919072,20.0867995 19.5919072,19.9532005 19.55,19.83 C19.43,19.54 19.33,19.24 19.23,18.95 C19.1836528,18.7869908 19.1199552,18.629423 19.04,18.48 C18.9367486,18.5115538 18.8458788,18.5744636 18.78,18.66 C18.6849576,18.7460713 18.6098727,18.8518728 18.56,18.97 C18.5442683,19.0924645 18.5726263,19.216531 18.64,19.32 L18.64,19.54 C18.6407087,19.7911699 18.6607681,20.0419119 18.7,20.29 L18.7,20.52 L18.7,20.52 C18.7,20.77 18.76,21.01 18.78,21.25 L18.78,21.25 C18.86,21.99 18.96,22.73 18.99,23.47 L18.59,23.7 C18.4567391,23.4398537 18.2731969,23.2087265 18.05,23.02 C17.9330123,22.8907547 17.7640953,22.8209847 17.59,22.83 C17.4195443,22.8794738 17.2756842,22.9945618 17.19,23.15 C17.0484102,23.3242751 16.9614397,23.5364831 16.94,23.76 L16.94,24.42 C16.94,24.48 16.94,24.56 17.05,24.6 C17.2215082,24.7017644 17.425481,24.7339706 17.62,24.69 L18.28,24.48 C18.3126668,24.6248477 18.3126668,24.7751523 18.28,24.92 C18.2394502,25.0018287 18.1853541,25.0762108 18.12,25.14 C17.9091773,25.377436 17.6708329,25.5889247 17.41,25.77 C17.147727,25.9694731 16.8432934,26.1062971 16.52,26.17 C16.3306469,26.1874053 16.1425042,26.1258972 16,26 C15.7166912,25.6337656 15.5940098,25.1682977 15.66,24.71 C15.6831917,24.5642501 15.6831917,24.4157499 15.66,24.27 C15.5629992,24.3468894 15.4986919,24.4576409 15.48,24.58 C15.4054914,24.8471604 15.3651697,25.1226925 15.36,25.4 C15.335971,25.6896112 15.3805072,25.9808098 15.49,26.25 C15.6473609,26.5924476 15.9600444,26.8381275 16.33,26.91 C16.7829741,26.9319077 17.2311971,26.8093467 17.61,26.56 C18.1503405,26.2920657 18.5711586,25.8320187 18.79,25.27 L18.79,25.27 C18.8333552,24.9648657 18.8333552,24.6551343 18.79,24.35 L19.1,24.17 L19.1,25.17 C19.1094374,25.4120642 19.085888,25.6542868 19.03,25.89 L19.03,25.89 C18.9419806,26.1921407 18.7554133,26.456151 18.5,26.64 C18.0967778,26.9702606 17.6306953,27.215209 17.13,27.36 C16.8457469,27.4511536 16.548468,27.4950698 16.25,27.49 C15.9246376,27.5006859 15.6107253,27.3692807 15.39,27.13 C15.1690553,26.8413795 15.0401265,26.4929232 15.02,26.13 C15.0088602,25.9468359 15.0088602,25.7631641 15.02,25.58 C15.1022707,25.3162671 15.1022707,25.0337329 15.02,24.77 C14.6317941,25.6650389 14.6245735,26.679526 15,27.58 C15.0673286,27.7377071 15.1740802,27.8754511 15.31,27.98 C15.5796416,28.1576127 15.8972259,28.2483511 16.22,28.24 C16.7716995,28.2324927 17.3173625,28.1240379 17.83,27.92 C18.2090608,27.7962444 18.5617455,27.602946 18.87,27.35 L18.87,27.35 Z M17.61,24 C17.48,23.89 17.53,23.69 17.61,23.55 L17.68,23.55 C17.7702777,23.5682504 17.8555527,23.6057714 17.93,23.66 C18.024504,23.7464443 18.1084233,23.8437907 18.18,23.95 C18.003194,24.0382708 17.7994737,24.056141 17.61,24 L17.61,24 Z M15.09,23.67 C15.25,23.6 15.43,23.56 15.59,23.5 C15.6076411,23.3772975 15.6076411,23.2527025 15.59,23.13 C15.543595,23.1230107 15.496405,23.1230107 15.45,23.13 C15.09863,23.2270963 14.7621821,23.3717689 14.45,23.56 C14.0520942,23.8218157 13.7118157,24.1620942 13.45,24.56 C13.61,24.49 13.73,24.37 13.88,24.28 C14.2694959,24.0382956 14.6774239,23.8276443 15.1,23.65 L15.09,23.67 Z M14.09,27.5 C13.96,27.55 13.86,27.41 13.83,27.3 C13.7616803,26.9650313 13.7929683,26.6173871 13.92,26.3 C13.9710989,26.0627199 13.9710989,25.8172801 13.92,25.58 L13.85,25.58 C13.76,25.79 13.73,26.02 13.64,26.23 C13.5248111,26.5156526 13.4703228,26.822149 13.48,27.13 C13.4702075,27.3550057 13.4903844,27.5803144 13.54,27.8 C13.580845,27.9724519 13.7328296,28.0956827 13.91,28.1 C14.1232026,28.0780341 14.2973875,27.9200524 14.34,27.71 C14.397905,27.5415027 14.397905,27.3584973 14.34,27.19 C14.28,27.21 14.25,27.39 14.13,27.48 L14.09,27.5 Z M38.8,36.3 C38.6107152,36.1665389 38.3809736,36.1029182 38.15,36.12 L35.59,36.12 C35.5843168,36.0300897 35.5843168,35.9399103 35.59,35.85 C35.65,35.74 35.77,35.64 35.74,35.5 C35.6847373,35.3675977 35.606916,35.2457904 35.51,35.14 L35.38,35.14 C35.2825936,35.2491646 35.2047823,35.3743393 35.15,35.51 C35.15,35.67 35.26,35.78 35.33,35.89 C35.4,36 35.33,36.04 35.33,36.11 L25.91,36.11 L24.13,36.11 L19.35,36.11 L16.95,36.11 C17.1626356,36.4209174 17.4719813,36.6529267 17.83,36.77 C18.4164189,36.952478 19.0259251,37.0501337 19.64,37.06 L21.64,37.06 L27.89,37.06 C29.8,37.06 31.7,37 33.61,36.96 L35.4,36.96 L35.4,37.22 C35.3343723,37.3061184 35.2742525,37.3962981 35.22,37.49 C35.2474326,37.6802992 35.3478541,37.8524502 35.5,37.97 L35.56,37.97 C35.6359884,37.8801052 35.7029758,37.7829735 35.76,37.68 L36.69,37.68 C36.7344975,37.7725072 36.8195101,37.8390387 36.92,37.86 C37.0282727,37.8393995 37.1143886,37.757198 37.14,37.65 L38.14,37.65 C38.2030743,37.7410788 38.2894011,37.8135933 38.39,37.86 C38.5535147,37.9161028 38.7347285,37.8688296 38.85,37.74 C39.0042324,37.5295716 39.0754426,37.2696545 39.05,37.01 C39.0911474,36.7476004 39.0142887,36.4804249 38.84,36.28 L38.8,36.3 Z M38.03,37.3 L37.12,37.3 C37.0796596,37.2000671 36.9872309,37.1307456 36.88,37.12 C36.8138249,37.1407481 36.7525768,37.1747749 36.7,37.22 L36.7,37.31 L35.79,37.31 C35.7349551,37.2295814 35.6748328,37.1527585 35.61,37.08 L35.61,36.81 L38.08,36.74 C38.0104571,36.9299544 38.0069344,37.137798 38.07,37.33 L38.03,37.3 Z M38.91,27.73 C38.91,27.56 39.02,27.44 39.06,27.28 L39.06,27.2 C38.8960484,27.1358681 38.7139516,27.1358681 38.55,27.2 C38.44,27.2 38.46,27.36 38.47,27.45 C38.48,27.54 38.7,27.54 38.7,27.67 C38.7,27.8 38.37,27.92 38.37,28.14 C38.37,28.36 38.52,28.28 38.61,28.26 C38.8395742,28.2166309 39.0535246,28.1131066 39.23,27.96 L39.23,27.78 L38.91,27.73 Z M42.53,22.09 C42.4075404,21.2889184 42.3407138,20.4803168 42.33,19.67 C42.398312,19.7341619 42.4865438,19.7729839 42.58,19.78 C42.609171,19.6787254 42.609171,19.5712746 42.58,19.47 C42.43,19.14 42.27,18.81 42.13,18.47 C42.0974173,18.3861947 42.0461108,18.3109452 41.98,18.25 C41.9,18.25 41.86,18.31 41.82,18.36 C41.7197719,18.470818 41.6416985,18.5998088 41.59,18.74 L41.59,19.19 C41.59,19.54 41.7,19.9 41.72,20.25 L41.72,20.71 C41.72,20.9 41.72,21.08 41.78,21.27 C41.9,22.36 42.03,23.45 42.1,24.55 C42.1789355,25.0877837 42.1448775,25.6361178 42,26.16 C41.8289444,26.5984157 41.5462693,26.9845085 41.18,27.28 C40.9,27.53 40.59,27.72 40.29,27.93 C40.2,28 40.08,28.07 40.05,28.19 C40.273097,28.2060014 40.4971867,28.178839 40.71,28.11 C41.2113597,28.0040864 41.6643607,27.7372021 42,27.35 C42.3192084,26.960734 42.5327384,26.4957897 42.62,26 L42.62,26 C42.6977482,25.5542947 42.7345682,25.1024125 42.73,24.65 C42.72,23.81 42.65,23 42.56,22.12 L42.53,22.09 Z M14,22.43 C14.1272568,22.385112 14.2315369,22.2916195 14.29,22.17 C14.4428062,21.8853673 14.5347526,21.5720684 14.56,21.25 C14.56,21.13 14.56,21.01 14.61,20.89 L14.61,20.89 C14.6496488,20.6236994 14.7270961,20.3644192 14.84,20.12 L14.9,20.12 C14.923754,20.2320887 14.923754,20.3479113 14.9,20.46 C14.856529,20.6537515 14.8330726,20.8514555 14.83,21.05 C14.7868384,21.4727571 14.8929717,21.8972904 15.13,22.25 C15.3249036,22.473821 15.614062,22.5924501 15.91,22.57 C15.91,23.08 16.03,23.57 16.08,24.11 L16.08,24.11 C16.08,24.29 16.08,24.47 16.13,24.64 C16.18,24.81 16.13,25.1 16.19,25.33 L16.25,25.33 C16.3579219,25.1644097 16.4263493,24.9762344 16.45,24.78 C16.45,24.28 16.4,23.78 16.38,23.29 C16.38,22.95 16.33,22.61 16.31,22.29 C16.4336921,22.1852622 16.5385399,22.0601213 16.62,21.92 C16.6707399,21.8264019 16.727527,21.7362107 16.79,21.65 L16.85,21.65 C16.8936355,21.8234149 16.9645172,21.9888054 17.06,22.14 C17.2262249,22.3563579 17.5128286,22.441128 17.77,22.35 C17.9966383,22.2839214 18.1963069,22.1473062 18.34,21.96 C18.4838441,21.6905427 18.5297878,21.3795393 18.47,21.08 C18.40677,20.698322 18.3199367,20.3209314 18.21,19.95 C18.28,19.95 18.37,19.95 18.41,19.87 C18.45,19.79 18.41,19.71 18.41,19.63 C18.3612294,19.5267995 18.3008385,19.4295031 18.23,19.34 C18.1418429,19.2128997 18.029752,19.1042056 17.9,19.02 C17.79,19.07 17.74,19.18 17.65,19.27 C17.56,19.36 17.51,19.41 17.51,19.51 C17.545832,19.6720893 17.5994919,19.8297153 17.67,19.98 C17.8398597,20.4110544 17.9573668,20.8609387 18.02,21.32 C18.0435927,21.4318566 17.9850146,21.5448287 17.88,21.59 C17.6971018,21.63115 17.505329,21.5949664 17.35,21.49 C17.2271121,21.3834258 17.1427634,21.2393301 17.11,21.08 C17.0102996,20.7292331 16.9730658,20.3636649 17,20 C17.0840059,19.6271719 16.9481692,19.2390668 16.65,19 C16.6,18.94 16.56,19 16.54,19.06 C16.4527122,19.3331972 16.4527122,19.6268028 16.54,19.9 C16.62,20.25 16.69,20.6 16.75,20.96 C16.7128994,21.2282861 16.5685629,21.4700496 16.35,21.63 L16.35,21.39 C16.3561703,21.2967686 16.3561703,21.2032314 16.35,21.11 C16.35,20.62 16.25,20.11 16.21,19.64 C16.2986761,19.5979664 16.3670215,19.5224267 16.4,19.43 C16.3720972,19.1416431 16.2761324,18.8640307 16.12,18.62 C16.06,18.51 16,18.38 15.88,18.33 C15.7569255,18.4357793 15.6667048,18.5745804 15.62,18.73 C15.62,18.87 15.68,18.98 15.72,19.11 C15.7338269,19.3806311 15.7774231,19.6489157 15.85,19.91 C15.85,20.19 15.85,20.48 15.92,20.77 C15.99,21.06 15.92,21.39 15.99,21.7 C15.8909523,21.7005447 15.7938093,21.6727895 15.71,21.62 C15.5590606,21.5005189 15.4504087,21.3357886 15.4,21.15 L15.35,20.95 C15.3195717,20.7746435 15.3195717,20.5953565 15.35,20.42 C15.3842101,20.1990688 15.4377489,19.9815673 15.51,19.77 C15.5360164,19.6244871 15.5360164,19.4755129 15.51,19.33 C15.4895873,19.2107845 15.3803283,19.1277476 15.26,19.14 C15.1105263,19.1826617 14.9844324,19.2835368 14.91,19.42 C14.7464363,19.6625475 14.6216097,19.929069 14.54,20.21 L14.54,20.21 C14.4816323,20.6543635 14.3981655,21.095068 14.29,21.53 C14.29,21.61 14.2,21.71 14.1,21.7 C14,21.69 13.9,21.51 13.84,21.39 C13.7194469,21.0416972 13.6487471,20.6780984 13.63,20.31 L13.63,19.54 L13.56,19.54 C13.4619962,19.7953911 13.4111721,20.0664529 13.41,20.34 L13.41,20.34 C13.3981366,20.9471467 13.5246678,21.5490251 13.78,22.1 C13.7,22.3 13.82,22.46 14,22.43 Z M17,19 C17.1293029,19.0168458 17.2558949,18.9535498 17.32,18.84 C17.39,18.84 17.42,18.94 17.47,19 C17.5245872,19.0217105 17.5854128,19.0217105 17.64,19 C17.74,19 17.77,18.86 17.8,18.77 C17.83,18.68 17.8,18.55 17.72,18.5 C17.64,18.45 17.72,18.82 17.52,18.79 C17.32,18.76 17.38,18.52 17.38,18.37 L17.38,18.37 C17.3423257,18.5165098 17.26233,18.6486766 17.15,18.75 L17,18.75 C16.9769795,18.6445754 16.9769795,18.5354246 17,18.43 L17,18.34 L17,18.34 C16.9194711,18.4531077 16.8838325,18.5920983 16.9,18.73 C16.81,18.82 16.87,19 17,19 Z M22.06,19.77 C22.1464707,19.7772605 22.2314212,19.744019 22.29,19.68 L22.29,19.42 C22.3628098,19.2592654 22.4197467,19.0918038 22.46,18.92 C22.5032803,18.7591695 22.4740522,18.5874548 22.38,18.45 C22.2653936,18.3310812 22.085852,18.3025178 21.94,18.38 C21.7898524,18.4625421 21.6757863,18.5979957 21.62,18.76 C21.5109455,19.0348895 21.5736076,19.3481999 21.78,19.56 C21.4385877,20.0043198 21.0264199,20.3894603 20.56,20.7 C20.4208546,20.7837182 20.2902326,20.8808474 20.17,20.99 L20.17,21.07 C20.3472896,21.0586024 20.5190298,21.0036455 20.67,20.91 C21.2367121,20.6685099 21.7274234,20.2780143 22.09,19.78 L22.06,19.77 Z M21.91,19 C21.9397375,18.9230131 21.9920167,18.8567928 22.06,18.81 C22.15,18.94 22.06,19.09 22,19.21 L21.95,19.21 C21.9144348,19.1461214 21.9004078,19.07248 21.91,19 L21.91,19 Z M14.38,18.61 C14.4191771,18.81481 14.4191771,19.02519 14.38,19.23 L14.38,19.23 C14.3581993,19.3148129 14.3314876,19.398287 14.3,19.48 C14.454418,19.253185 14.563114,18.9984287 14.62,18.73 C14.6626681,18.5616206 14.6217332,18.3829958 14.51,18.25 C14.4010034,18.216034 14.2823003,18.2516449 14.21,18.34 C14.13,18.42 14.03,18.51 14.06,18.64 C14.09,18.77 14.24,18.54 14.38,18.58 L14.38,18.61 Z M21.75,20.78 L21.67,20.78 C21.5510541,20.8866844 21.4497945,21.0115712 21.37,21.15 C21.2550043,21.3090996 21.2017004,21.5045472 21.22,21.7 C21.2513331,21.8417097 21.3477052,21.9603216 21.48,22.02 C21.6105073,22.0435425 21.7448868,22.0108556 21.85,21.93 C22.0292234,21.8012079 22.1426232,21.6000148 22.16,21.38 C22.03,21.38 21.96,21.53 21.87,21.61 C21.78,21.69 21.66,21.75 21.56,21.69 C21.4790317,21.625867 21.4437052,21.5198873 21.47,21.42 C21.51,21.14 21.72,21 21.75,20.74 L21.75,20.78 Z" id="Shape" fill="#FFFFFF"></path>
                    </g>
                </g>
            </g>
        </g>
    </g>
</svg>