<svg xmlns="http://www.w3.org/2000/svg" xmlns:xlink="http://www.w3.org/1999/xlink" width="64px" height="64px" viewBox="0 0 64 64" version="1.1" class="replaced-svg">
    <!-- Generator: Sketch 49.3 (51167) - http://www.bohemiancoding.com/sketch -->
    <title>Flag/flag_togo</title>
    <desc>Created with Sketch.</desc>
    <defs></defs>
    <g id="Flag/flag_togo" stroke="none" stroke-width="1" fill="none" fill-rule="evenodd">
        <g id="Asset-197" transform="translate(4.000000, 4.000000)" fill-rule="nonzero">
            <g id="Layer_2">
                <g>
                    <g id="Layer_1-2">
                        <circle id="Oval" fill="#000000" cx="28" cy="28" r="28"></circle>
                        <path d="M5.93,44.58 L50.07,44.58 C52.5391405,41.3152014 54.2474407,37.539858 55.07,33.53 L0.92,33.53 C1.74490283,37.5409113 3.45671111,41.3164565 5.93,44.58 L5.93,44.58 Z" id="Shape" fill="#FFCE00"></path>
                        <path d="M28,55.63 C36.6870324,55.6307955 44.8659759,51.5357649 50.07,44.58 L5.93,44.58 C11.1340241,51.5357649 19.3129676,55.6307955 28,55.63 L28,55.63 Z" id="Shape" fill="#006A4E"></path>
                        <path d="M28,0.37 C19.3129676,0.369204473 11.1340241,4.46423509 5.93,11.42 L50.07,11.42 C44.864936,4.46547902 36.6866595,0.37078232 28,0.37 L28,0.37 Z" id="Shape" fill="#006A4E"></path>
                        <path d="M5.93,11.42 C3.45998327,14.6842778 1.7515897,18.4598276 0.93,22.47 L55.08,22.47 C54.2574407,18.460142 52.5491405,14.6847986 50.08,11.42 L5.93,11.42 Z" id="Shape" fill="#FFCE00"></path>
                        <path d="M0.37,28 C0.367561449,29.8571064 0.551821175,31.7097542 0.92,33.53 L55.08,33.53 C55.8183202,29.8836655 55.8183202,26.1263345 55.08,22.48 L0.92,22.48 C0.552420833,24.2969607 0.368163768,26.1462316 0.37,28 L0.37,28 Z" id="Shape" fill="#006A4E"></path>
                        <path d="M28,0.37 C19.7033425,0.374630068 11.8472522,4.10458099 6.59940621,10.5306731 C1.35156018,16.9567652 -0.733331859,25.3997453 0.92,33.53 L28,33.53 L28,0.37 Z" id="Shape" fill="#D21034"></path>
                        <polygon id="Shape" fill="#FFFFFF" points="15.58 11.23 17.67 17.66 24.42 17.66 18.96 21.63 21.05 28.05 15.58 24.08 10.12 28.05 12.2 21.63 6.74 17.66 13.49 17.66"></polygon>
                    </g>
                </g>
            </g>
        </g>
    </g>
</svg>