<svg xmlns="http://www.w3.org/2000/svg" xmlns:xlink="http://www.w3.org/1999/xlink" width="" height="" viewBox="0 0 18 17" version="1.1" class="replaced-svg">
    <!-- Generator: Sketch 57.1 (83088) - https://sketch.com -->
    <title>eLife</title>
    <desc>Created with Sketch.</desc>
    <g id="Page-1" stroke="none" stroke-width="1" fill="none" fill-rule="evenodd">
        <g id="Desktop-HD" transform="translate(-287.000000, -436.000000)">
            <g id="column" transform="translate(120.000000, 424.000000)">
                <g id="row">
                    <g id="eLife" transform="translate(164.000000, 9.000000)">
                        <rect id="Rectangle" x="0" y="0" width="24" height="24"></rect>
                        <g id="Group-14" transform="translate(3.000000, 4.000000)" stroke-linecap="round" stroke-linejoin="round">
                            <g id="Group-3" transform="translate(5.000000, 14.485100)" stroke="#777E86">
                                <path d="M0.4841,0.5002 L7.4841,0.5002" id="Stroke-1"></path>
                            </g>
                            <path d="M8.9919,12.4999 L8.9919,14.9849" id="Stroke-4" stroke="#777E86"></path>
                            <path d="M4.5427,3.2343 C4.2357,3.8903 4.2487,4.4613 4.5017,5.4543 C4.8567,6.8533 5.4697,8.2663 5.7557,9.2113 C6.0847,10.1753 6.0867,10.6713 6.2147,10.7353 C6.2277,10.7423 6.2417,10.7443 6.2597,10.7443 C6.4277,10.7443 6.8507,10.4863 7.7447,10.2203 C8.6917,9.9033 10.2197,9.5763 11.5847,9.0503 C12.5227,8.6903 13.1697,8.2363 13.3767,7.6733 C13.3897,7.6593 13.4017,7.6433 13.4137,7.6283 C13.4127,7.6323 13.4117,7.6363 13.4097,7.6413 C13.6697,7.2963 13.7467,6.9043 13.5947,6.4603 C13.3107,5.5173 11.9437,4.3303 10.0957,3.3913 C8.6627,2.6653 7.2757,2.2553 6.2827,2.2553 C5.9937,2.2553 5.7377,2.2913 5.5237,2.3623 C5.0727,2.4973 4.8347,2.7173 4.6037,3.1233 L4.5427,3.2343 Z" id="Stroke-6" stroke="#8BBD29"></path>
                            <path d="M7.3298,9.2656 C7.2178,9.2656 7.1228,9.2466 7.0408,9.2046 C6.7688,9.0686 6.6198,8.6586 6.4008,8.0076 C6.2028,7.3686 5.9348,6.4866 5.8838,5.6386 C5.8318,4.7876 6.0958,4.1776 6.7618,3.9766 C6.9318,3.9206 7.1298,3.8936 7.3498,3.8936 C7.9618,3.8936 8.7338,4.1056 9.5118,4.4996 C10.5678,5.0356 11.3398,5.7626 11.5398,6.4026 C11.7578,7.0526 11.4028,7.6176 10.6688,8.0676 C9.9348,8.5176 9.0498,8.8146 8.4038,9.0256 C7.9378,9.1656 7.5908,9.2656 7.3298,9.2656" id="Stroke-8" stroke="#8BBD29"></path>
                            <path d="M7.5095,9.0683 C7.3585,9.0683 7.2275,9.0453 7.1285,8.9943 C6.6475,8.7493 6.2665,7.5673 6.2735,6.3533 C6.2765,5.5603 6.7865,5.1243 7.5515,5.1243 C7.9605,5.1243 8.4425,5.2493 8.9575,5.5103 C10.4385,6.2623 10.8195,7.4433 9.8135,8.1513 C9.0175,8.7143 8.0965,9.0683 7.5095,9.0683 Z" id="Stroke-10" stroke="#8BBD29"></path>
                            <path d="M12.4841,12.4999 L1.5001,12.4999 C0.9481,12.4999 0.5001,12.0529 0.5001,11.4999 L0.5001,1.4999 C0.5001,0.9479 0.9481,0.4999 1.5001,0.4999 L16.4841,0.4999 C17.0371,0.4999 17.4841,0.9479 17.4841,1.4999 L17.4841,11.4999 C17.4841,12.0529 17.0371,12.4999 16.4841,12.4999" id="Stroke-12" stroke="#777E86"></path>
                        </g>
                    </g>
                </g>
            </g>
        </g>
    </g>
</svg>