<?xml version="1.0" encoding="UTF-8"?>
<svg width="189px" height="202px" viewBox="0 0 189 202" version="1.1" xmlns="http://www.w3.org/2000/svg" xmlns:xlink="http://www.w3.org/1999/xlink">
    <!-- Generator: sketchtool 54.1 (76490) - https://sketchapp.com -->
    <title>9432B036-CF26-483C-8924-ABF1C86C8E2C</title>
    <desc>Created with sketchtool.</desc>
    <defs>
        <linearGradient x1="93.3852505%" y1="0%" x2="45.9563856%" y2="55.7518379%" id="linearGradient-1">
            <stop stop-color="#641DA4" offset="0%"></stop>
            <stop stop-color="#7C6D88" offset="100%"></stop>
        </linearGradient>
    </defs>
    <g id="Guidelines" stroke="none" stroke-width="1" fill="none" fill-rule="evenodd" opacity="0.4">
        <g id="B2B-+-B2C-New-Module-Guidelines" transform="translate(-120.000000, -705.000000)" fill="url(#linearGradient-1)">
            <g id="--buttons--">
                <g id="Text" transform="translate(120.000000, 220.000000)">
                    <g id="Cross-Promo_Need_help" transform="translate(0.000000, 485.000000)">
                        <g id="Wave-graphic-color" transform="translate(600.000000, 101.000000) scale(-1, 1) translate(-600.000000, -101.000000) ">
                            <path d="M1130.04013,202 C1126.72055,200.370523 1123.35476,198.802925 1120.0891,197.084068 C1117.4704,195.702107 1115.05966,193.838865 1116.93126,190.86868 C1118.76435,187.960373 1121.6064,188.799176 1124.50236,189.919871 C1133.82183,193.522596 1143.21832,196.953435 1152.5763,200.48053 C1153.66999,200.893056 1154.68665,201.491218 1155.74183,202 L1130.04013,202 Z M1051.79088,84.1975962 C1051.0273,85.2335728 1050.29489,87.1700522 1049.03265,87.6721024 C1047.74704,88.1741526 1045.54201,87.7358548 1044.45119,86.827383 C1042.97857,85.5921801 1041.97345,83.6158554 1041.13196,81.7829737 C1034.09614,66.514272 1025.14358,52.5365566 1014.16521,39.9295179 C1012.17055,37.6264622 1011.40698,35.2277778 1013.83017,32.8450316 C1016.10532,30.5977592 1018.52851,31.3627881 1020.37512,33.4267723 C1033.13777,47.6515283 1042.99416,63.8366709 1050.97276,81.2649854 C1051.30001,81.9662619 1051.4013,82.771136 1051.79088,84.1975962 Z M1197.84855,32.7922078 C1189.13796,24.4448145 1180.33628,16.176022 1171.77473,7.68714746 C1169.55568,5.47846808 1168.08184,2.57810263 1166.26851,0 L1177.12363,0 C1184.03746,7.18410305 1190.943,14.360346 1197.84855,21.5444491 L1197.84855,32.7922078 Z M1150.91846,0 C1162.41522,21.6085935 1178.0492,39.5117134 1199.16438,52.4688663 L1199.16438,62.961039 C1186.8418,56.5024705 1176.17085,47.8510299 1166.69007,37.8710609 C1156.07581,26.7146241 1147.36417,14.1736367 1141.26765,0 L1150.91846,0 Z M1199.16438,194.12987 C1186.46557,191.601385 1173.31798,190.301249 1161.1843,186.225362 C1146.49091,181.303988 1132.65353,174.037584 1118.46709,167.736311 C1116.98778,167.074279 1115.63313,166.109147 1114.31172,165.167945 C1111.72708,163.341373 1109.74082,161.068129 1111.9681,157.989279 C1114.01254,155.157695 1116.82157,155.955324 1119.44776,157.40701 C1124.30955,160.079069 1129.06329,162.958511 1134.03311,165.431162 C1151.69343,174.268897 1170.28456,180.554217 1189.96439,183.760687 C1193.04768,184.263194 1196.09772,184.965108 1199.16438,185.579282 L1199.16438,194.12987 Z M1121.90619,0 C1132.71751,18.0596163 1141.45134,37.4481166 1156.20992,52.9985358 C1165.87447,63.1673874 1176.89355,71.6276738 1189.07603,78.5774896 C1192.34186,80.4346257 1195.79883,81.9533503 1199.16438,83.6288997 L1199.16438,94.4415584 C1180.56657,85.7088921 1163.8219,74.4257588 1149.57022,59.5274008 C1138.08578,47.5426828 1130.02507,33.3706713 1122.07239,19.0665967 C1118.50739,12.6367791 1114.7014,6.35553225 1111.00345,0 L1121.90619,0 Z M1092.48158,0 C1097.94218,7.99479264 1103.57521,15.88658 1108.8141,24.0160719 C1117.07479,36.8204177 1124.31727,50.3061828 1133.3252,62.5796554 C1149.13219,84.1236011 1171.27018,98.1006221 1196.31502,108.012897 C1197.19364,108.369454 1198.21186,108.416995 1199.16438,108.607158 L1199.16438,118.051948 C1187.00327,112.537205 1174.2345,107.981203 1162.81242,101.293785 C1140.33775,88.1328826 1124.29263,69.0848336 1111.58956,46.867392 C1102.3435,30.6955666 1091.09385,15.5854877 1080.73925,0 L1092.48158,0 Z M1060.33977,0 C1077.83796,20.4653391 1091.9075,43.0723997 1103.86338,67.0279516 C1118.20721,95.7587493 1141.2961,115.272212 1171.04059,127.384837 C1179.71304,130.914712 1188.90181,133.262673 1197.84855,136.150031 L1197.84855,145.597403 C1180.43104,141.242569 1163.53791,135.610634 1148.03237,126.3933 C1126.19393,113.408121 1108.57474,96.3616043 1097.0545,73.8893928 C1085.29223,50.9412432 1072.42473,28.73873 1055.74136,8.84451669 C1053.20013,5.81437734 1050.47335,2.94288403 1047.84338,0 L1060.33977,0 Z M1025.62456,0 C1034.10647,9.51348488 1042.98099,18.7249544 1050.98851,28.6119846 C1063.35558,43.8955531 1073.47336,60.6256163 1081.96345,78.2378824 C1103.68762,123.333549 1141.76218,147.693475 1190.15899,159.011104 C1193.15261,159.710509 1196.16259,160.370174 1199.16438,161.045735 L1199.16438,170.519481 C1184.10633,166.116414 1168.54933,162.897566 1154.08836,157.095691 C1119.59633,143.25067 1092.83372,120.464403 1076.1398,87.5924118 C1065.68668,67.0076784 1054.65283,46.7567515 1039.51298,29.0729555 C1030.72025,18.8044321 1020.5534,9.65654481 1011,0 L1025.62456,0 Z" id="wave-graphic-color" opacity="0.401060268"></path>
                        </g>
                    </g>
                </g>
            </g>
        </g>
    </g>
</svg>