<?xml version="1.0" encoding="utf-8"?>
<!-- Generator: Adobe Illustrator 16.0.0, SVG Export Plug-In . SVG Version: 6.00 Build 0)  -->
<!DOCTYPE svg PUBLIC "-//W3C//DTD SVG 1.1//EN" "http://www.w3.org/Graphics/SVG/1.1/DTD/svg11.dtd">
<svg version="1.1" id="Layer_1" xmlns="http://www.w3.org/2000/svg" xmlns:xlink="http://www.w3.org/1999/xlink" x="0px" y="0px"
	 width="136px" height="146px" viewBox="0 0 136 146" enable-background="new 0 0 136 146" xml:space="preserve">
<title>illustartion-cards-10%</title>
<desc>Created with Sketch.</desc>
<g id="illustartion-cards-10_x25_" display="none">
	<g id="wave-graphic" display="inline">
		
			<linearGradient id="SVGID_1_" gradientUnits="userSpaceOnUse" x1="-149.3638" y1="180.9199" x2="-10.8638" y2="11.4199" gradientTransform="matrix(1 0 0 -1 0 147)">
			<stop  offset="0" style="stop-color:#FFFFFF"/>
			<stop  offset="1" style="stop-color:#719E19"/>
		</linearGradient>
		<path fill="url(#SVGID_1_)" d="M-153.764,0c6.13,6.862,12.544,13.507,18.332,20.639c8.939,11.024,16.251,23.092,22.388,35.796
			c15.702,32.529,43.222,50.1,78.201,58.264c2.163,0.504,4.339,0.98,6.509,1.467V123c-10.884-3.176-22.128-5.498-32.58-9.684
			c-24.93-9.986-44.273-26.422-56.339-50.134c-7.555-14.848-15.53-29.456-26.473-42.211C-150.081,13.564-157.429,6.965-164.333,0
			H-153.764z M-129.252,0c12.715,14.759,22.938,31.063,31.626,48.338c10.422,20.72,27.2,34.792,48.813,43.527
			c6.304,2.546,12.979,4.238,19.48,6.322V105c-12.656-3.141-24.932-7.202-36.199-13.85c-15.867-9.364-28.671-21.657-37.042-37.863
			c-8.547-16.549-17.897-32.561-30.02-46.908c-1.846-2.186-3.828-4.257-5.739-6.379H-129.252z M-104.905,0
			c3.919,5.756,7.962,11.438,11.722,17.292c5.93,9.22,11.127,18.93,17.594,27.767c11.346,15.512,27.234,25.576,45.211,32.712
			c0.631,0.258,1.361,0.291,2.045,0.429V85c-8.729-3.971-17.895-7.251-26.092-12.066c-16.131-9.476-27.646-23.191-36.766-39.188
			C-97.828,22.102-105.901,11.222-113.333,0H-104.905z M-84.419,0c7.85,13.003,14.189,26.963,24.902,38.16
			c7.018,7.322,15.016,13.413,23.858,18.417c2.371,1.337,4.882,2.431,7.324,3.637V68c-13.501-6.288-25.656-14.412-36.002-25.139
			c-8.338-8.629-14.188-18.833-19.963-29.132C-86.886,9.099-89.648,4.576-92.333,0H-84.419z M-28.333,140
			c-9.219-1.795-18.764-2.718-27.57-5.609c-10.668-3.494-20.713-8.651-31.012-13.125c-1.074-0.47-2.057-1.154-3.016-1.822
			c-1.877-1.297-3.318-2.909-1.702-5.096c1.483-2.01,3.522-1.442,5.43-0.414c3.53,1.897,6.979,3.941,10.589,5.696
			c12.82,6.272,26.316,10.734,40.604,13.011c2.238,0.355,4.451,0.854,6.679,1.291L-28.333,140L-28.333,140z M-63.333,0
			c8.341,15.788,19.683,28.868,34.999,38.334V46c-8.939-4.719-16.68-11.04-23.559-18.331C-59.591,19.518-65.912,10.355-70.333,0
			H-63.333z M-29.333,23c-6.344-5.854-12.754-11.654-18.99-17.608c-1.615-1.549-2.689-3.584-4.01-5.392h7.906
			c5.035,5.039,10.064,10.072,15.094,15.111V23z M-77.214,146c-2.439-1.242-4.912-2.438-7.311-3.748
			c-1.925-1.053-3.695-2.475-2.32-4.738c1.347-2.217,3.435-1.578,5.563-0.723c6.846,2.746,13.749,5.361,20.623,8.051
			c0.805,0.314,1.551,0.771,2.326,1.158H-77.214z M-134.333,61.321c-0.561,0.753-1.099,2.161-2.026,2.526
			c-0.944,0.365-2.564,0.046-3.366-0.614c-1.082-0.898-1.82-2.334-2.438-3.667c-5.17-11.099-11.746-21.26-19.812-30.424
			c-1.465-1.674-2.026-3.417-0.246-5.15c1.671-1.633,3.452-1.077,4.809,0.423c9.376,10.34,16.617,22.105,22.478,34.774
			C-134.694,59.699-134.62,60.284-134.333,61.321z"/>
	</g>
</g>
<g id="illustartion-cards-10_x25__1_">
	<g id="wave-graphic_1_">
		
			<linearGradient id="SVGID_2_" gradientUnits="userSpaceOnUse" x1="68.0005" y1="159.6094" x2="68.0005" y2="-4.7288" gradientTransform="matrix(1 0 0 -1 0 147)">
			<stop  offset="0.1133" style="stop-color:#FFFFFF"/>
			<stop  offset="1" style="stop-color:#719E19"/>
		</linearGradient>
		<path fill="url(#SVGID_2_)" d="M10.57,0c6.13,6.862,12.544,13.507,18.332,20.639c8.939,11.024,16.251,23.092,22.388,35.796
			c15.702,32.529,43.222,50.1,78.201,58.264c2.163,0.504,4.339,0.98,6.509,1.467V123c-10.884-3.176-22.128-5.498-32.58-9.684
			c-24.93-9.986-44.273-26.422-56.339-50.134c-7.555-14.848-15.53-29.456-26.473-42.211C14.253,13.564,6.905,6.965,0,0H10.57z
			 M35.081,0c12.715,14.759,22.938,31.063,31.626,48.338c10.422,20.72,27.2,34.792,48.813,43.527
			c6.304,2.546,12.979,4.238,19.48,6.322V105c-12.656-3.141-24.932-7.202-36.199-13.85C82.934,81.786,70.13,69.493,61.759,53.287
			c-8.547-16.549-17.897-32.561-30.02-46.908C29.893,4.193,27.911,2.122,26,0H35.081z M59.428,0
			c3.919,5.756,7.962,11.438,11.722,17.292c5.93,9.22,11.127,18.93,17.594,27.767c11.346,15.512,27.234,25.576,45.211,32.712
			c0.631,0.258,1.361,0.291,2.045,0.429V85c-8.729-3.971-17.895-7.251-26.092-12.066c-16.131-9.476-27.646-23.191-36.766-39.188
			C66.506,22.102,58.432,11.222,51,0H59.428z M79.914,0c7.85,13.003,14.189,26.963,24.902,38.16
			c7.018,7.322,15.016,13.413,23.858,18.417c2.371,1.337,4.882,2.431,7.324,3.637V68c-13.501-6.288-25.656-14.412-36.002-25.139
			c-8.338-8.629-14.188-18.833-19.963-29.132C77.447,9.099,74.686,4.576,72,0H79.914z M136,140
			c-9.219-1.795-18.764-2.718-27.57-5.609c-10.668-3.494-20.713-8.651-31.012-13.125c-1.074-0.47-2.057-1.154-3.016-1.822
			c-1.877-1.297-3.318-2.909-1.702-5.096c1.483-2.01,3.522-1.442,5.43-0.414c3.53,1.897,6.979,3.941,10.589,5.696
			c12.82,6.272,26.316,10.734,40.604,13.011c2.238,0.355,4.451,0.854,6.679,1.291L136,140L136,140z M101.001,0
			c8.341,15.788,19.683,28.868,34.999,38.334V46c-8.939-4.719-16.68-11.04-23.559-18.331C104.742,19.518,98.422,10.355,94,0H101.001
			z M135,23c-6.344-5.854-12.754-11.654-18.99-17.608C114.395,3.843,113.32,1.808,112,0h7.906
			c5.035,5.039,10.064,10.072,15.094,15.111V23z M87.119,146c-2.439-1.242-4.912-2.438-7.311-3.748
			c-1.925-1.053-3.695-2.475-2.32-4.738c1.347-2.217,3.435-1.578,5.563-0.723c6.846,2.746,13.749,5.361,20.623,8.051
			c0.805,0.314,1.551,0.771,2.326,1.158H87.119z M30,61.321c-0.561,0.753-1.099,2.161-2.026,2.526
			c-0.944,0.365-2.564,0.046-3.366-0.614c-1.082-0.898-1.82-2.334-2.438-3.667C17,48.467,10.424,38.306,2.358,29.142
			c-1.465-1.674-2.026-3.417-0.246-5.15c1.671-1.633,3.452-1.077,4.809,0.423c9.376,10.34,16.617,22.105,22.478,34.774
			C29.639,59.699,29.714,60.284,30,61.321z"/>
	</g>
</g>
</svg>
