<svg xmlns="http://www.w3.org/2000/svg" xmlns:xlink="http://www.w3.org/1999/xlink" width="64px" height="64px" viewBox="0 0 64 64" version="1.1" class="icon-img replaced-svg">
                                                            <!-- Generator: Sketch 51.3 (57544) - http://www.bohemiancoding.com/sketch -->
                                                            <title>icon-tv</title>
                                                            <desc>Created with Sketch.</desc>
                                                            <defs></defs>
                                                            <g id="icon-tv" stroke="none" stroke-width="2" fill="none" fill-rule="evenodd" stroke-linecap="round" stroke-linejoin="round">
                                                                <g id="Icon/Outline-1pt/tv-blank/tv_blank_consumer" stroke="#719E19">
                                                                    <path d="M60,44 C60,45.1 59.1310345,46 58.0689655,46 L5.93103448,46 C4.86896552,46 4,45.1 4,44 L4,12 C4,10.9 4.86896552,10 5.93103448,10 L58.0689655,10 C59.1310345,10 60,10.9 60,12 L60,44 L60,44 Z" id="Line"></path>
                                                                    <path d="M29,46 L29,52" id="Line"></path>
                                                                    <path d="M35,46 L35,52" id="Line"></path>
                                                                    <path d="M51,54 C46.0117449,51.5647235 39.3381066,52.0368589 32.0004992,52.0368589 C24.6618934,52.0368589 17.9882551,51.5647235 13,54" id="Line"></path>
                                                                    <rect id="Line" x="8" y="14" width="48" height="28"></rect>
                                                                </g>
                                                            </g>
                                                        </svg>